<svg width="17" height="17" viewBox="0 0 17 17" version="1.1" xmlns="http://www.w3.org/2000/svg" xmlns:xlink="http://www.w3.org/1999/xlink">
<title>ic_search_black_24px</title>
<desc>Created using Figma</desc>
<g id="Canvas" transform="translate(7180 19837)">
<g id="ic_search_black_24px">
<g id="Vector">
<use xlink:href="#path0_fill" transform="translate(-7180 -19837)" fill="#BDBDBD"/>
</g>
</g>
</g>
<defs>
<path id="path0_fill" d="M 12.1498 10.6918L 11.3819 10.6918L 11.1098 10.4294C 12.0623 9.32133 12.6358 7.88279 12.6358 6.3179C 12.6358 2.82847 9.80732 0 6.3179 0C 2.82847 0 0 2.82847 0 6.3179C 0 9.80732 2.82847 12.6358 6.3179 12.6358C 7.88279 12.6358 9.32133 12.0623 10.4294 11.1098L 10.6918 11.3819L 10.6918 12.1498L 15.5517 17L 17 15.5517L 12.1498 10.6918ZM 6.3179 10.6918C 3.89766 10.6918 1.94397 8.73814 1.94397 6.3179C 1.94397 3.89766 3.89766 1.94397 6.3179 1.94397C 8.73814 1.94397 10.6918 3.89766 10.6918 6.3179C 10.6918 8.73814 8.73814 10.6918 6.3179 10.6918Z"/>
</defs>
</svg>
