<svg width="88" height="528" viewBox="0 0 88 528" version="1.1" xmlns="http://www.w3.org/2000/svg" xmlns:xlink="http://www.w3.org/1999/xlink">
<title>&#208;&#161;&#208;&#190;&#209;&#134;&#208;&#184;&#208;&#176;&#208;&#187;&#208;&#186;&#208;&#184;</title>
<desc>Created using Figma</desc>
<g id="Canvas" transform="translate(25320 19131)">
<g id="&#208;&#161;&#208;&#190;&#209;&#134;&#208;&#184;&#208;&#176;&#208;&#187;&#208;&#186;&#208;&#184;">
<g id="Vk button">
<g id="Rectangle 2">
<use xlink:href="#path0_fill" transform="translate(-25320 -19131)" fill="#BDBDBD"/>
</g>
<g id="&#239;&#134;&#137;">
<use xlink:href="#path1_fill" transform="translate(-25312.7 -19121.8)" fill="#FFFFFF"/>
</g>
</g>
<g id="Facebook button">
<g id="Rectangle 2.2">
<use xlink:href="#path0_fill" transform="translate(-25320 -19087)" fill="#BDBDBD"/>
</g>
<g id="&#239;&#130;&#154;">
<use xlink:href="#path2_fill" transform="translate(-25305.3 -19077.8)" fill="#FFFFFF"/>
</g>
</g>
<g id="odnoklasniki button">
<g id="Rectangle 2.5">
<use xlink:href="#path0_fill" transform="translate(-25320 -19043)" fill="#BDBDBD"/>
</g>
<g id="&#239;&#137;&#163;">
<use xlink:href="#path3_fill" transform="translate(-25307.2 -19033.8)" fill="#FFFFFF"/>
</g>
</g>
<g id="Instagram button">
<g id="Rectangle 2.4">
<use xlink:href="#path0_fill" transform="translate(-25320 -18999)" fill="#BDBDBD"/>
</g>
<g id="&#239;&#133;&#173;">
<use xlink:href="#path4_fill" transform="translate(-25309 -18989.8)" fill="#FFFFFF"/>
</g>
</g>
<g id="twitter button">
<g id="Rectangle 2.5">
<use xlink:href="#path0_fill" transform="translate(-25320 -18955)" fill="#BDBDBD"/>
</g>
<g id="&#239;&#130;&#153;">
<use xlink:href="#path5_fill" transform="translate(-25309 -18945.8)" fill="#FFFFFF"/>
</g>
</g>
<g id="telegram button">
<g id="Rectangle 2.5">
<use xlink:href="#path0_fill" transform="translate(-25320 -18911)" fill="#BDBDBD"/>
</g>
<g id="&#239;&#135;&#153;">
<use xlink:href="#path6_fill" transform="translate(-25310.8 -18901.8)" fill="#FFFFFF"/>
</g>
</g>
<g id="Yuotube button">
<g id="Rectangle 2.3">
<use xlink:href="#path0_fill" transform="translate(-25320 -18867)" fill="#BDBDBD"/>
</g>
<g id="&#239;&#133;&#170;">
<use xlink:href="#path7_fill" transform="translate(-25310.8 -18857.8)" fill="#FFFFFF"/>
</g>
</g>
<g id="Vk button">
<g id="Rectangle 2">
<use xlink:href="#path0_fill" transform="translate(-25276 -19131)" fill="#5075A2"/>
</g>
<g id="&#239;&#134;&#137;">
<use xlink:href="#path1_fill" transform="translate(-25268.7 -19121.8)" fill="#FFFFFF"/>
</g>
</g>
<g id="Facebook button">
<g id="Rectangle 2.2">
<use xlink:href="#path0_fill" transform="translate(-25276 -19087)" fill="#3F5996"/>
</g>
<g id="&#239;&#130;&#154;">
<use xlink:href="#path2_fill" transform="translate(-25261.3 -19077.8)" fill="#FFFFFF"/>
</g>
</g>
<g id="odnoklasniki button">
<g id="Rectangle 2.5">
<use xlink:href="#path0_fill" transform="translate(-25276 -19043)" fill="#F1812E"/>
</g>
<g id="&#239;&#137;&#163;">
<use xlink:href="#path3_fill" transform="translate(-25263.2 -19033.8)" fill="#FFFFFF"/>
</g>
</g>
<g id="Instagram button">
<g id="Rectangle 2.4">
<use xlink:href="#path0_fill" transform="translate(-25276 -18999)" fill="#F01859"/>
</g>
<g id="&#239;&#133;&#173;">
<use xlink:href="#path4_fill" transform="translate(-25265 -18989.8)" fill="#FFFFFF"/>
</g>
</g>
<g id="twitter button">
<g id="Rectangle 2.5">
<use xlink:href="#path0_fill" transform="translate(-25276 -18955)" fill="#68D7FA"/>
</g>
<g id="&#239;&#130;&#153;">
<use xlink:href="#path5_fill" transform="translate(-25265 -18945.8)" fill="#FFFFFF"/>
</g>
</g>
<g id="telegram button">
<g id="Rectangle 2.5">
<use xlink:href="#path0_fill" transform="translate(-25276 -18911)" fill="#6AA9DB"/>
</g>
<g id="&#239;&#135;&#153;">
<use xlink:href="#path6_fill" transform="translate(-25266.8 -18901.8)" fill="#FFFFFF"/>
</g>
</g>
<g id="Yuotube button">
<g id="Rectangle 2.3">
<use xlink:href="#path0_fill" transform="translate(-25276 -18867)" fill="#CC1010"/>
</g>
<g id="&#239;&#133;&#170;">
<use xlink:href="#path7_fill" transform="translate(-25266.8 -18857.8)" fill="#FFFFFF"/>
</g>
</g>
<g id="Rectangle">
<use xlink:href="#path0_fill" transform="translate(-25320 -18823)" fill="#C4C4C4"/>
</g>
<g id="Rectangle">
<use xlink:href="#path0_fill" transform="translate(-25320 -18779)" fill="#C4C4C4"/>
</g>
<g id="Group">
<g id="Rectangle">
<use xlink:href="#path0_fill" transform="translate(-25276 -18779)" fill="#E7322B"/>
</g>
</g>
<g id="Rectangle">
<use xlink:href="#path0_fill" transform="translate(-25320 -18735)" fill="#C4C4C4"/>
</g>
<g id="Group">
<g id="Rectangle">
<use xlink:href="#path0_fill" transform="translate(-25276 -18735)" fill="#00AFF0"/>
</g>
</g>
<g id="skype">
<g id="Group">
<g id="Vector">
<use xlink:href="#path8_fill" transform="translate(-25266.7 -18725.7)" fill="#FFFFFF"/>
</g>
<g id="Vector">
<use xlink:href="#path9_fill" transform="translate(-25259.5 -18720.1)" fill="#00AFF0"/>
</g>
</g>
</g>
<g id="Rectangle">
<use xlink:href="#path0_fill" transform="translate(-25320 -18691)" fill="#C4C4C4"/>
</g>
<g id="Group">
<g id="Rectangle">
<use xlink:href="#path0_fill" transform="translate(-25276 -18691)" fill="#7AD06D"/>
</g>
</g>
<g id="Rectangle">
<use xlink:href="#path0_fill" transform="translate(-25320 -18647)" fill="#C4C4C4"/>
</g>
<g id="Group">
<g id="Rectangle">
<use xlink:href="#path0_fill" transform="translate(-25276 -18647)" fill="#7C529D"/>
</g>
</g>
<g id="Group 2">
<g id="Rectangle">
<use xlink:href="#path0_fill" transform="translate(-25276 -18823)" fill="#DA4835"/>
</g>
<g id="&#239;&#134;&#160;">
<use xlink:href="#path10_fill" transform="translate(-25265.3 -18813.7)" fill="#FFFFFF"/>
</g>
</g>
<g id="yandex">
<g id="XMLID 233">
<g id="XMLID 235">
<use xlink:href="#path11_fill" transform="translate(-25260 -18768.3)" fill="#FFFFFF"/>
</g>
</g>
</g>
<g id="viber">
<g id="Group">
<g id="Vector">
<use xlink:href="#path12_fill" transform="translate(-25265.3 -18636.3)" fill="#FFFFFF"/>
</g>
</g>
</g>
<g id="whatsapp">
<g id="Group">
<g id="Vector">
<use xlink:href="#path13_fill" transform="translate(-25265.3 -18680.3)" fill="#FFFFFF"/>
</g>
<g id="Vector">
<use xlink:href="#path14_fill" transform="translate(-25259.7 -18674.5)" fill="#FFFFFF"/>
</g>
</g>
</g>
<g id="skype">
<g id="Group">
<g id="Vector">
<use xlink:href="#path8_fill" transform="translate(-25310.7 -18725.7)" fill="#FFFFFF"/>
</g>
<g id="Vector">
<use xlink:href="#path9_fill" transform="translate(-25303.5 -18720.1)" fill="#C4C4C4"/>
</g>
</g>
</g>
<g id="&#239;&#134;&#160;">
<use xlink:href="#path10_fill" transform="translate(-25309.3 -18813.7)" fill="#FFFFFF"/>
</g>
<g id="yandex">
<g id="XMLID 233">
<g id="XMLID 235">
<use xlink:href="#path11_fill" transform="translate(-25304 -18768.3)" fill="#FFFFFF"/>
</g>
</g>
</g>
<g id="viber">
<g id="Group">
<g id="Vector">
<use xlink:href="#path12_fill" transform="translate(-25309.3 -18636.3)" fill="#FFFFFF"/>
</g>
</g>
</g>
<g id="whatsapp">
<g id="Group">
<g id="Vector">
<use xlink:href="#path13_fill" transform="translate(-25309.3 -18680.3)" fill="#FFFFFF"/>
</g>
<g id="Vector">
<use xlink:href="#path14_fill" transform="translate(-25303.7 -18674.5)" fill="#FFFFFF"/>
</g>
</g>
</g>
</g>
</g>
<defs>
<path id="path0_fill" d="M 0 0L 44 0L 44 44L 0 44L 0 0Z"/>
<path id="path1_fill" d="M 25.6741 7.39286C 25.6741 7.39286 25.4866 6.85714 24.3214 7.00446L 20.4643 7.03125C 20.1696 6.99107 19.9554 7.11161 19.9554 7.11161C 19.9554 7.11161 19.7277 7.23214 19.6205 7.52679C 18.9911 9.14732 18.1875 10.5402 18.1875 10.5402C 16.4732 13.4598 15.7768 13.6205 15.4955 13.433C 14.8393 13.0179 15.0134 11.7455 15.0134 10.8348C 15.0134 7.99554 15.442 6.81696 14.1696 6.50893C 13.7545 6.41518 13.4464 6.34821 12.3616 6.33482C 10.9821 6.32143 9.81696 6.33482 9.16071 6.65625C 8.71875 6.87054 8.38393 7.35268 8.58482 7.37946C 8.83929 7.41964 9.41518 7.54018 9.72321 7.95536C 9.72321 7.95536 10.058 8.50446 10.1116 9.70982C 10.2589 13.0446 9.57589 13.4598 9.57589 13.4598C 9.05357 13.7411 8.14286 13.2723 6.80357 10.5134C 6.80357 10.5134 6.02679 9.14732 5.42411 7.64732C 5.31696 7.36607 5.10268 7.21875 5.10268 7.21875C 5.10268 7.21875 4.86161 7.03125 4.51339 6.97768L 0.84375 7.00446C 0.28125 7.00446 0.0803571 7.25893 0.0803571 7.25893C 0.0803571 7.25893 -0.120536 7.47321 0.0669643 7.91518C 2.93304 14.6518 6.20089 18.0268 6.20089 18.0268C 6.20089 18.0268 9.1875 21.1473 12.5759 20.933L 14.1161 20.933C 14.5848 20.8929 14.8259 20.6384 14.8259 20.6384C 14.8259 20.6384 15.0402 20.3973 15.0268 19.9554C 15 17.8929 15.9643 17.5848 15.9643 17.5848C 16.9018 17.2902 18.1071 19.5804 19.3929 20.4643C 19.3929 20.4643 20.3705 21.1339 21.1071 20.9866L 24.5357 20.933C 26.3438 20.9196 25.4866 19.4196 25.4866 19.4196C 25.4196 19.2991 24.9911 18.375 22.9286 16.4598C 20.7857 14.4643 21.067 14.7857 23.6652 11.3304C 25.2455 9.22768 25.875 7.94196 25.6741 7.39286Z"/>
<path id="path2_fill" d="M 12.8438 0.589286C 12.4821 0.535714 11.2366 0.428571 9.79018 0.428571C 6.76339 0.428571 4.6875 2.27679 4.6875 5.66518L 4.6875 8.58482L 1.27232 8.58482L 1.27232 12.5491L 4.6875 12.5491L 4.6875 22.7143L 8.78571 22.7143L 8.78571 12.5491L 12.1875 12.5491L 12.7098 8.58482L 8.78571 8.58482L 8.78571 6.05357C 8.78571 4.91518 9.09375 4.125 10.7411 4.125L 12.8438 4.125L 12.8438 0.589286Z"/>
<path id="path3_fill" d="M 8.57143 12.5759C 11.9196 12.5759 14.6518 9.85714 14.6518 6.50893C 14.6518 3.14732 11.9196 0.428571 8.57143 0.428571C 5.22321 0.428571 2.49107 3.14732 2.49107 6.50893C 2.49107 9.85714 5.22321 12.5759 8.57143 12.5759ZM 8.57143 3.50893C 10.2188 3.50893 11.558 4.84821 11.558 6.50893C 11.558 8.15625 10.2188 9.49554 8.57143 9.49554C 6.92411 9.49554 5.58482 8.15625 5.58482 6.50893C 5.58482 4.84821 6.92411 3.50893 8.57143 3.50893ZM 15.5759 13.3125C 15.2277 12.6295 14.2768 12.0536 13.0179 13.0446C 13.0179 13.0446 11.317 14.3973 8.57143 14.3973C 5.82589 14.3973 4.125 13.0446 4.125 13.0446C 2.86607 12.0536 1.91518 12.6295 1.56696 13.3125C 0.977679 14.5179 1.64732 15.0938 3.17411 16.0848C 4.47321 16.9152 6.26786 17.2232 7.41964 17.3438L 6.45536 18.308C 5.08929 19.6607 3.79018 20.9732 2.87946 21.8839C 2.33036 22.433 2.33036 23.317 2.87946 23.8527L 3.04018 24.0268C 3.57589 24.5625 4.45982 24.5625 5.00893 24.0268L 8.58482 20.4375C 9.95089 21.8036 11.2634 23.1161 12.1607 24.0268C 12.7098 24.5625 13.5938 24.5625 14.1429 24.0268L 14.3036 23.8527C 14.8393 23.317 14.8393 22.433 14.3036 21.8839L 10.7277 18.308L 9.75 17.3438C 10.9152 17.2232 12.683 16.9018 13.9688 16.0848C 15.4955 15.0938 16.1652 14.5179 15.5759 13.3125Z"/>
<path id="path4_fill" d="M 13.7143 12.4286C 13.7143 14.317 12.1741 15.8571 10.2857 15.8571C 8.39732 15.8571 6.85714 14.317 6.85714 12.4286C 6.85714 10.5402 8.39732 9 10.2857 9C 12.1741 9 13.7143 10.5402 13.7143 12.4286ZM 15.5625 12.4286C 15.5625 9.50893 13.2054 7.15179 10.2857 7.15179C 7.36607 7.15179 5.00893 9.50893 5.00893 12.4286C 5.00893 15.3482 7.36607 17.7054 10.2857 17.7054C 13.2054 17.7054 15.5625 15.3482 15.5625 12.4286ZM 17.0089 6.9375C 17.0089 6.25446 16.4598 5.70536 15.7768 5.70536C 15.0938 5.70536 14.5446 6.25446 14.5446 6.9375C 14.5446 7.62054 15.0938 8.16964 15.7768 8.16964C 16.4598 8.16964 17.0089 7.62054 17.0089 6.9375ZM 10.2857 3.99107C 11.7857 3.99107 15 3.87054 16.3527 4.40625C 16.8214 4.59375 17.1696 4.82143 17.5312 5.18304C 17.8929 5.54464 18.1205 5.89286 18.308 6.36161C 18.8438 7.71429 18.7232 10.9286 18.7232 12.4286C 18.7232 13.9286 18.8438 17.1429 18.308 18.4955C 18.1205 18.9643 17.8929 19.3125 17.5312 19.6741C 17.1696 20.0357 16.8214 20.2634 16.3527 20.4509C 15 20.9866 11.7857 20.8661 10.2857 20.8661C 8.78571 20.8661 5.57143 20.9866 4.21875 20.4509C 3.75 20.2634 3.40179 20.0357 3.04018 19.6741C 2.67857 19.3125 2.45089 18.9643 2.26339 18.4955C 1.72768 17.1429 1.84821 13.9286 1.84821 12.4286C 1.84821 10.9286 1.72768 7.71429 2.26339 6.36161C 2.45089 5.89286 2.67857 5.54464 3.04018 5.18304C 3.40179 4.82143 3.75 4.59375 4.21875 4.40625C 5.57143 3.87054 8.78571 3.99107 10.2857 3.99107ZM 20.5714 12.4286C 20.5714 11.0089 20.5848 9.60268 20.5045 8.18304C 20.4241 6.53571 20.0491 5.07589 18.8438 3.87054C 17.6384 2.66518 16.1786 2.29018 14.5312 2.20982C 13.1116 2.12946 11.7054 2.14286 10.2857 2.14286C 8.86607 2.14286 7.45982 2.12946 6.04018 2.20982C 4.39286 2.29018 2.93304 2.66518 1.72768 3.87054C 0.522321 5.07589 0.147321 6.53571 0.0669643 8.18304C -0.0133929 9.60268 0 11.0089 0 12.4286C 0 13.8482 -0.0133929 15.2545 0.0669643 16.6741C 0.147321 18.3214 0.522321 19.7812 1.72768 20.9866C 2.93304 22.192 4.39286 22.567 6.04018 22.6473C 7.45982 22.7277 8.86607 22.7143 10.2857 22.7143C 11.7054 22.7143 13.1116 22.7277 14.5312 22.6473C 16.1786 22.567 17.6384 22.192 18.8438 20.9866C 20.0491 19.7812 20.4241 18.3214 20.5045 16.6741C 20.5848 15.2545 20.5714 13.8482 20.5714 12.4286Z"/>
<path id="path5_fill" d="M 21.6964 5.89286C 20.9196 6.22768 20.0759 6.46875 19.2054 6.5625C 20.1027 6.02679 20.7857 5.18304 21.1071 4.17857C 20.2768 4.67411 19.3393 5.03571 18.3616 5.22321C 17.5714 4.37946 16.4464 3.85714 15.2009 3.85714C 12.8036 3.85714 10.875 5.79911 10.875 8.18304C 10.875 8.51786 10.9152 8.85268 10.9821 9.17411C 7.39286 8.98661 4.19196 7.27232 2.0625 4.64732C 1.6875 5.29018 1.47321 6.02679 1.47321 6.83036C 1.47321 8.33036 2.23661 9.65625 3.40179 10.433C 2.69196 10.4062 2.02232 10.2054 1.44643 9.88393C 1.44643 9.89732 1.44643 9.92411 1.44643 9.9375C 1.44643 12.0402 2.93304 13.7812 4.91518 14.183C 4.55357 14.2768 4.16518 14.3304 3.77679 14.3304C 3.49554 14.3304 3.22768 14.3036 2.95982 14.2634C 3.50893 15.9777 5.10268 17.2232 7.00446 17.2634C 5.51786 18.4286 3.65625 19.1116 1.63393 19.1116C 1.27232 19.1116 0.9375 19.0982 0.589286 19.058C 2.50446 20.2902 4.78125 21 7.23214 21C 15.1875 21 19.5402 14.4107 19.5402 8.69196C 19.5402 8.50446 19.5402 8.31696 19.5268 8.12946C 20.3705 7.51339 21.1071 6.75 21.6964 5.89286Z"/>
<path id="path6_fill" d="M 23.625 0.575893C 23.3571 0.388393 22.9955 0.375 22.7143 0.549107L 0.428571 13.4062C 0.147321 13.567 -0.0267857 13.875 0 14.1964C 0.0267857 14.5312 0.227679 14.8125 0.535714 14.933L 6.85714 17.5179L 6.85714 23.5714C 6.85714 23.9196 7.07143 24.2411 7.40625 24.375C 7.5 24.4152 7.60714 24.4286 7.71429 24.4286C 7.95536 24.4286 8.18304 24.3348 8.34375 24.1473L 12.3348 19.7679L 19.3929 22.6473C 19.5 22.6875 19.6071 22.7143 19.7143 22.7143C 19.8616 22.7143 20.0089 22.6741 20.1295 22.6071C 20.3571 22.4732 20.5179 22.2589 20.558 22.0045L 23.9866 1.43304C 24.0402 1.09821 23.9062 0.776786 23.625 0.575893ZM 19.0446 20.6518L 12.4554 17.9598L 18.8571 7.28571L 7.29911 15.8438L 2.79911 14.0089L 22.0045 2.93304L 19.0446 20.6518Z"/>
<path id="path7_fill" d="M 9.52232 15.5357L 9.52232 8.79911L 16.0045 12.1875L 9.52232 15.5357ZM 12 3.99107C 6.95089 3.99107 3.60268 4.23214 3.60268 4.23214C 3.13393 4.28571 2.10268 4.28571 1.19196 5.25C 1.19196 5.25 0.455357 5.97321 0.241071 7.63393C -0.0133929 9.57589 0 11.5179 0 11.5179L 0 13.3393C 0 13.3393 -0.0133929 15.2812 0.241071 17.2232C 0.455357 18.8705 1.19196 19.6071 1.19196 19.6071C 2.10268 20.558 3.30804 20.5312 3.84375 20.625C 3.84375 20.625 5.75893 20.8125 12 20.8661C 17.0491 20.8661 20.3973 20.6116 20.3973 20.6116C 20.8661 20.558 21.8973 20.558 22.808 19.6071C 22.808 19.6071 23.5446 18.8705 23.7589 17.2232C 24.0134 15.2812 24 13.3393 24 13.3393L 24 11.5179C 24 11.5179 24.0134 9.57589 23.7589 7.63393C 23.5446 5.97321 22.808 5.25 22.808 5.25C 21.8973 4.28571 20.8661 4.28571 20.3973 4.23214C 20.3973 4.23214 17.0491 3.99107 12 3.99107Z"/>
<path id="path8_fill" d="M 24.6057 15.3559C 24.7878 14.5304 24.8843 13.6771 24.8843 12.7993C 24.8843 6.22074 19.4753 0.886515 12.8012 0.886515C 12.0973 0.886515 11.4069 0.946683 10.7355 1.06067C 9.65577 0.389437 8.37789 0 7.00826 0C 3.13678 0 1.32181e-10 3.09333 1.32181e-10 6.91014C 1.32181e-10 8.18453 0.3523 9.37814 0.962716 10.4048C 0.802002 11.1781 0.71808 11.9792 0.71808 12.7993C 0.71808 19.3801 6.12711 24.5157 12.8005 24.5157C 13.5565 24.5157 14.296 24.4468 15.0125 24.3162C 15.9998 24.8386 17.1272 25.3333 18.3259 25.3333C 22.1966 25.3333 25.3333 22.2408 25.3333 18.424C 25.3333 17.323 25.0712 16.2805 24.6057 15.3559Z"/>
<path id="path9_fill" d="M 11.1916 12.1107C 10.7253 12.7733 10.0428 13.2941 9.14423 13.6685C 8.24561 14.046 7.18158 14.2328 5.95049 14.2328C 4.47397 14.2328 3.25627 13.9764 2.29591 13.4627C 1.61661 13.0938 1.06325 12.5999 0.637288 11.984C 0.212893 11.3682 2.70708e-07 10.7683 2.70708e-07 10.1848C 2.70708e-07 9.84766 0.127492 9.55795 0.38239 9.31806C 0.637288 9.07504 0.962715 8.95558 1.35624 8.95558C 1.6761 8.95558 1.94761 9.04818 2.16772 9.23737C 2.3894 9.42501 2.57863 9.7028 2.73378 10.0724C 2.92459 10.5118 3.12965 10.8782 3.35211 11.1719C 3.57222 11.4655 3.88417 11.7093 4.28474 11.9C 4.68695 12.0892 5.21501 12.1858 5.86735 12.1858C 6.76519 12.1858 7.49509 11.9942 8.05724 11.6087C 8.61774 11.2248 8.89959 10.7428 8.89959 10.1673C 8.89959 9.71133 8.74758 9.33849 8.44511 9.05591C 8.14186 8.77099 7.75077 8.55327 7.27098 8.40372C 6.79197 8.25252 6.15068 8.09263 5.34633 7.92403C 4.27195 7.69371 3.37177 7.42139 2.64821 7.11273C 1.92378 6.80163 1.34745 6.37976 0.923059 5.84547C 0.497099 5.30883 0.284901 4.64395 0.284901 3.85003C 0.284901 3.09176 0.508926 2.41974 0.958628 1.83163C 1.40755 1.24274 2.05597 0.790786 2.9078 0.474124C 3.75807 0.157548 4.75888 -1.30018e-07 5.90761 -1.30018e-07C 6.82597 -1.30018e-07 7.62084 0.105293 8.29144 0.313445C 8.96204 0.524032 9.51705 0.802611 9.95876 1.15014C 10.4013 1.49767 10.7251 1.86172 10.9286 2.24402C 11.1329 2.62398 11.235 2.99916 11.235 3.36008C 11.235 3.6917 11.1083 3.99254 10.8534 4.25773C 10.5985 4.5237 10.2802 4.65742 9.89936 4.65742C 9.55175 4.65742 9.28816 4.57665 9.10762 4.41762C 8.92708 4.25773 8.73158 3.99654 8.52173 3.63318C 8.24857 3.11393 7.92323 2.70867 7.54162 2.41818C 7.16001 2.12691 6.54881 1.98127 5.70481 1.98127C 4.92342 1.98127 4.29161 2.13804 3.81181 2.45539C 3.33202 2.7704 3.09139 3.15193 3.09139 3.59597C 3.09139 3.86985 3.17453 4.10887 3.3368 4.30911C 3.49908 4.51092 3.72398 4.68116 4.01131 4.82445C 4.29552 4.96852 4.58529 5.08094 4.87741 5.16398C 5.16953 5.24553 5.65332 5.36344 6.32783 5.5202C 7.17019 5.70149 7.93418 5.90251 8.61826 6.12101C 9.30155 6.34029 9.88423 6.60704 10.364 6.91805C 10.843 7.2315 11.2183 7.62885 11.4867 8.10854C 11.755 8.58666 11.8904 9.17312 11.8904 9.86818C 11.8907 10.6994 11.6564 11.4474 11.1916 12.1107Z"/>
<path id="path10_fill" d="M 10.2857 10.9554L 10.2857 14.4911L 16.125 14.4911C 15.8839 16.0045 14.3571 18.9241 10.2857 18.9241C 6.77679 18.9241 3.91071 16.0179 3.91071 12.4286C 3.91071 8.83929 6.77679 5.93304 10.2857 5.93304C 12.2812 5.93304 13.6205 6.79018 14.3839 7.52679L 17.183 4.83482C 15.3884 3.16071 13.058 2.14286 10.2857 2.14286C 4.59375 2.14286 0 6.73661 0 12.4286C 0 18.1205 4.59375 22.7143 10.2857 22.7143C 16.2188 22.7143 20.1562 18.5357 20.1562 12.6696C 20.1562 11.9866 20.0893 11.4777 19.9955 10.9554L 10.2857 10.9554Z"/>
<path id="path11_fill" d="M 9.72601 0L 6.75334 0C 3.74163 0 0.702789 2.2676 0.702789 7.3336C 0.702789 9.95767 1.79356 12.0014 3.79296 13.1637L 0.133375 19.9175C -0.0400848 20.2369 -0.0445965 20.5989 0.121279 20.8858C 0.283231 21.166 0.579282 21.3333 0.91319 21.3333L 2.76423 21.3333C 3.18477 21.3333 3.51273 21.1261 3.66991 20.763L 7.10111 13.92L 7.35152 13.92L 7.35152 20.4805C 7.35152 20.9428 7.73414 21.3333 8.18698 21.3333L 9.80421 21.3333C 10.312 21.3333 10.6667 20.9717 10.6667 20.454L 10.6667 0.933467C 10.6667 0.383867 10.2799 0 9.72601 0ZM 7.35159 10.8803L 6.90986 10.8803C 5.19704 10.8803 4.17446 9.45467 4.17446 7.0668C 4.17446 4.09767 5.46622 3.0398 6.67514 3.0398L 7.35159 3.0398L 7.35159 10.8803Z"/>
<path id="path12_fill" d="M 17.574 0.568386C 13.4332 -0.189462 9.23373 -0.189462 5.09193 0.568386C 3.28041 0.956552 1.00137 3.05758 0.555808 4.74755C -0.185269 8.01748 -0.185269 11.3323 0.555808 14.6022C 1.00137 16.2922 3.28041 18.3932 5.09193 18.7814C 5.09239 18.7815 5.09285 18.7816 5.0933 18.7816C 5.174 18.7969 5.23283 18.8641 5.23283 18.9433L 5.23283 23.7335C 5.23283 23.9729 5.53658 24.0908 5.7095 23.9174L 8.07454 21.5823C 8.07454 21.5823 9.95916 19.721 10.298 19.3863C 10.3312 19.3536 10.3769 19.3359 10.4243 19.3371C 12.8121 19.4008 15.2025 19.2152 17.574 18.7815C 19.3856 18.3933 21.6655 16.2923 22.1102 14.6023C 22.8522 11.3324 22.8522 8.01757 22.1102 4.74764C 21.6654 3.05758 19.3865 0.956552 17.574 0.568386ZM 17.6372 14.8461C 17.2749 15.5862 16.7477 16.2019 15.9872 16.5949C 15.7727 16.7058 15.5162 16.7416 15.2741 16.8134C 14.9956 16.732 14.7301 16.6774 14.4837 16.579C 11.9296 15.5595 9.57902 14.2443 7.71708 12.2282C 6.65826 11.0818 5.82944 9.78746 5.12898 8.4177C 4.79678 7.76812 4.51682 7.0931 4.23146 6.42248C 3.97117 5.81092 4.35451 5.17911 4.75808 4.71833C 5.13676 4.28589 5.62404 3.95494 6.15176 3.71104C 6.56366 3.52065 6.96997 3.63041 7.27079 3.96629C 7.92111 4.69245 8.51845 5.45576 9.00217 6.29749C 9.2996 6.81522 9.21799 7.44808 8.67893 7.80042C 8.54791 7.88607 8.42852 7.98658 8.30647 8.08332C 8.19942 8.16808 8.09869 8.25372 8.02532 8.3685C 7.89119 8.57843 7.88479 8.8262 7.97115 9.05452C 8.63593 10.8121 9.75642 12.1788 11.5952 12.9149C 11.8895 13.0327 12.185 13.1698 12.5239 13.1318C 13.0916 13.068 13.2754 12.4689 13.6732 12.1559C 14.0621 11.85 14.559 11.846 14.9778 12.101C 15.3967 12.356 15.8029 12.6299 16.2065 12.9066C 16.6028 13.1782 16.9973 13.444 17.3628 13.7536C 17.714 14.0513 17.8351 14.4419 17.6372 14.8461ZM 14.3395 9.11878C 14.1809 9.12151 14.2432 9.11852 14.3035 9.11684C 14.048 9.10822 13.909 8.96351 13.8816 8.72824C 13.8615 8.55633 13.8457 8.38214 13.8031 8.21491C 13.7191 7.88554 13.5371 7.58029 13.2492 7.37846C 13.1132 7.28313 12.9592 7.2136 12.7978 7.16888C 12.5927 7.11193 12.3798 7.1276 12.1753 7.07937C 11.9531 7.02708 11.8302 6.85395 11.8651 6.65344C 11.8968 6.47098 12.0814 6.32856 12.2886 6.34299C 13.5839 6.43295 14.5096 7.07717 14.6417 8.54419C 14.651 8.6477 14.662 8.75702 14.6381 8.85604C 14.5993 9.01703 14.4797 9.10082 14.3589 9.11605C 14.3688 9.11623 14.3668 9.11702 14.3395 9.11878ZM 13.5341 5.76356C 13.1366 5.57635 12.7068 5.45998 12.2711 5.39062C 12.0807 5.36035 11.8883 5.34195 11.697 5.31634C 11.4652 5.28535 11.3415 5.1432 11.3524 4.92342C 11.3626 4.71745 11.5191 4.56931 11.7524 4.58199C 12.5191 4.62389 13.2596 4.78329 13.9412 5.13053C 15.3273 5.83671 16.1191 6.95139 16.3502 8.4398C 16.3607 8.50722 16.3774 8.57403 16.3827 8.64171C 16.3959 8.80877 16.4041 8.9761 16.4174 9.19641C 16.4119 9.23655 16.409 9.33091 16.3847 9.4198C 16.296 9.74248 15.7875 9.78289 15.6704 9.45721C 15.6357 9.36057 15.6305 9.25063 15.6303 9.14659C 15.6291 8.46585 15.4753 7.78581 15.1185 7.19353C 14.7517 6.58496 14.1913 6.07322 13.5341 5.76356ZM 17.817 10.3636C 17.5492 10.3666 17.4287 10.1511 17.4113 9.92002C 17.3769 9.46267 17.3531 9.0033 17.2875 8.54973C 16.9417 6.15551 14.9572 4.17472 12.4802 3.74968C 12.1075 3.68569 11.7259 3.66887 11.3484 3.63076C 11.1097 3.60664 10.797 3.59274 10.7442 3.30729C 10.6998 3.06796 10.9098 2.8774 11.1466 2.86517C 11.211 2.86182 11.2758 2.86464 11.3405 2.8649C 14.5486 2.95143 11.5363 2.87159 11.3491 2.86534C 14.686 2.95891 17.4257 5.09074 18.0132 8.26543C 18.1134 8.80684 18.1491 9.36039 18.1936 9.9099C 18.2123 10.1409 18.0762 10.3606 17.817 10.3636Z"/>
<path id="path13_fill" d="M 10.7792 0.0131084C 4.74422 0.298139 -0.0182554 5.28352 5.26065e-05 11.2765C 0.00562698 13.1019 0.449882 14.8247 1.23357 16.347L 0.0303291 22.1405C -0.0347599 22.4539 0.250189 22.7283 0.564048 22.6546L 6.28723 21.3096C 7.75761 22.0361 9.40915 22.4557 11.157 22.4822C 17.3254 22.5756 22.4688 17.7174 22.661 11.6011C 22.8671 5.04495 17.412 -0.300219 10.7792 0.0131084ZM 17.6082 17.466C 15.9321 19.1285 13.7037 20.0441 11.3333 20.0441C 9.94544 20.0441 8.61666 19.7352 7.3838 19.126L 6.58677 18.7322L 3.07787 19.5568L 3.81647 16.0004L 3.42381 15.2376C 2.78379 13.9944 2.45928 12.6499 2.45928 11.2417C 2.45928 8.89053 3.38233 6.6801 5.05841 5.01752C 6.71952 3.36983 8.98435 2.43934 11.3335 2.43934C 13.7038 2.43939 15.9322 3.35498 17.6083 5.01746C 19.2844 6.68 20.2074 8.89042 20.2075 11.2416C 20.2074 13.5718 19.2693 15.8183 17.6082 17.466Z"/>
<path id="path14_fill" d="M 11.2106 7.85671L 9.01532 7.23147C 8.72671 7.14929 8.41591 7.23049 8.20561 7.44305L 7.66878 7.98557C 7.44242 8.21433 7.09894 8.28784 6.79934 8.1676C 5.76087 7.75074 3.57637 5.82415 3.0185 4.86048C 2.85755 4.58249 2.88417 4.23496 3.08178 3.98132L 3.55047 3.37987C 3.73409 3.14422 3.77284 2.82775 3.65141 2.55535L 2.72781 0.483321C 2.50659 -0.0129623 1.86723 -0.157429 1.44953 0.192977C 0.836844 0.706987 0.109881 1.48808 0.0215105 2.35342C -0.134299 3.87908 0.525335 5.8023 3.01976 8.11161C 5.90149 10.7795 8.20917 11.132 9.71168 10.7709C 10.5639 10.5662 11.245 9.74535 11.6748 9.07327C 11.9678 8.61504 11.7364 8.00649 11.2106 7.85671Z"/>
</defs>
</svg>
