<svg width="119" height="134" viewBox="0 0 119 134" version="1.1" xmlns="http://www.w3.org/2000/svg" xmlns:xlink="http://www.w3.org/1999/xlink">
<title>profits</title>
<desc>Created using Figma</desc>
<g id="Canvas" transform="translate(15854 15160)">
<g id="profits">
<g id="Vector">
<use xlink:href="#path0_fill" transform="translate(-15835.4 -15065.6)" fill="#F2F2F2"/>
</g>
<g id="Vector">
<use xlink:href="#path1_fill" transform="translate(-15829.6 -15065.6)" fill="#F2F2F2"/>
</g>
<g id="Vector">
<use xlink:href="#path2_fill" transform="translate(-15804.6 -15081.9)" fill="#F2F2F2"/>
</g>
<g id="Vector">
<use xlink:href="#path3_fill" transform="translate(-15798.9 -15081.9)" fill="#F2F2F2"/>
</g>
<g id="Vector">
<use xlink:href="#path4_fill" transform="translate(-15767.4 -15099.9)" fill="#F2F2F2"/>
</g>
<g id="Vector">
<use xlink:href="#path5_fill" transform="translate(-15761.8 -15099.9)" fill="#F2F2F2"/>
</g>
<g id="Vector">
<use xlink:href="#path6_fill" transform="translate(-15835.9 -15139)" fill="#F2F2F2"/>
</g>
<g id="Vector">
<use xlink:href="#path7_fill" transform="translate(-15779.4 -15077)" fill="#F2F2F2"/>
</g>
<g id="Vector">
<use xlink:href="#path8_fill" transform="translate(-15773 -15070.6)" fill="#F2F2F2"/>
</g>
<g id="%">
<use xlink:href="#path9_fill" transform="translate(-15768 -15067)" fill="#FFFFFF"/>
</g>
</g>
</g>
<defs>
<path id="path0_fill" d="M 20.5653 37.0683L 20.5653 2.45028C 20.5653 1.09714 19.4706 3.35386e-06 18.1198 3.35386e-06L 2.44556 3.35386e-06C 1.09503 3.35386e-06 8.04663e-08 1.09688 8.04663e-08 2.45028L 8.04663e-08 37.0683C 8.04663e-08 38.4214 1.09477 39.5185 2.44556 39.5185L 18.1201 39.5185C 19.4706 39.5185 20.5653 38.4214 20.5653 37.0683Z"/>
<path id="path1_fill" d="M 12.3475 3.35386e-06L -5.14984e-07 3.35386e-06C 1.35053 3.35386e-06 2.44556 1.09688 2.44556 2.45028L 2.44556 37.0683C 2.44556 38.4214 1.35079 39.5185 -5.14984e-07 39.5185L 12.3472 39.5185C 13.6978 39.5185 14.7928 38.4217 14.7928 37.0683L 14.7928 2.45028C 14.7928 1.09688 13.698 3.35386e-06 12.3475 3.35386e-06Z"/>
<path id="path2_fill" d="M 20.5654 53.3944L 20.5654 2.45028C 20.5654 1.09688 19.4703 3.86983e-07 18.1198 3.86983e-07L 2.44556 3.86983e-07C 1.09503 3.86983e-07 -9.97782e-07 1.09688 -9.97782e-07 2.45028L -9.97782e-07 53.3946C -9.97782e-07 54.7478 1.09477 55.8449 2.44556 55.8449L 18.1201 55.8449C 19.4706 55.8446 20.5654 54.7475 20.5654 53.3944Z"/>
<path id="path3_fill" d="M 12.4134 3.86983e-07L -1.44839e-06 3.86983e-07C 1.35079 3.86983e-07 2.44556 1.09714 2.44556 2.45028L 2.44556 53.3944C 2.44556 54.7475 1.35079 55.8446 -1.44839e-06 55.8446L 12.4134 55.8446C 13.7639 55.8446 14.859 54.7478 14.859 53.3944L 14.859 2.45028C 14.859 1.09714 13.7642 3.86983e-07 12.4134 3.86983e-07Z"/>
<path id="path4_fill" d="M 20.5656 71.4023L 20.5656 2.45028C 20.5656 1.09714 19.4709 -1.87042e-06 18.1201 -1.87042e-06L 2.44556 -1.87042e-06C 1.09503 -1.87042e-06 -6.4373e-08 1.09688 -6.4373e-08 2.45028L -6.4373e-08 71.4023C -6.4373e-08 72.7554 1.09476 73.8525 2.44556 73.8525L 18.1201 73.8525C 19.4706 73.8525 20.5656 72.7554 20.5656 71.4023Z"/>
<path id="path5_fill" d="M 12.54 -1.87042e-06L -1.54495e-06 -1.87042e-06C 1.35053 -1.87042e-06 2.44555 1.09688 2.44555 2.45028L 2.44555 71.4023C 2.44555 72.7556 1.35053 73.8525 -1.54495e-06 73.8525L 12.54 73.8525C 13.8908 73.8525 14.9855 72.7554 14.9855 71.4023L 14.9855 2.45028C 14.9855 1.09714 13.8908 -1.87042e-06 12.54 -1.87042e-06Z"/>
<path id="path6_fill" d="M 92.3374 12.1497L 90.8785 1.70949C 90.8049 1.18377 90.5244 0.70957 90.0993 0.392553C 89.6745 0.0758003 89.1409 -0.0576116 88.6167 0.0229636L 77.1369 1.78452C 76.0554 1.95043 75.3131 2.96329 75.4787 4.0467C 75.6443 5.13037 76.6557 5.87457 77.7365 5.70813L 84.4259 4.68153C 75.4803 15.7623 65.8589 25.2012 55.7819 32.7639C 47.0132 39.3447 37.8823 44.5316 28.6427 48.181C 12.9175 54.3919 2.17924 53.9837 2.07377 53.98C 0.979009 53.9246 0.0553676 54.7726 0.00236952 55.8663C -0.0506285 56.961 0.792067 57.8918 1.88472 57.9449C 1.94932 57.948 2.21985 57.9596 2.68312 57.9596C 5.53737 57.9596 15.6914 57.5208 29.8471 51.9715C 39.4464 48.2085 48.9193 42.8538 58.0033 36.0559C 68.4424 28.2441 78.392 18.4895 87.6219 7.03511L 88.4134 12.6999C 88.5521 13.6922 89.4006 14.4097 90.3727 14.4097C 90.464 14.4097 90.5568 14.4034 90.6499 14.3904C 91.7336 14.2385 92.489 13.2352 92.3374 12.1497Z"/>
<path id="path7_fill" d="M 21.9006 43.8857C 33.9959 43.8857 43.8012 34.0616 43.8012 21.9429C 43.8012 9.82415 33.9959 -3.54735e-06 21.9006 -3.54735e-06C 9.80522 -3.54735e-06 0 9.82415 0 21.9429C 0 34.0616 9.80522 43.8857 21.9006 43.8857Z"/>
<path id="path8_fill" d="M 30.9714 31.0312C 39.5239 22.4622 39.5239 8.56897 30.9714 9.67459e-07L 3.21865e-06 31.0312C 8.55247 39.6002 22.419 39.6002 30.9714 31.0312Z"/>
<path id="path9_fill" d="M 4.78979 12.0169C 3.35836 12.0169 2.22422 11.6343 1.38739 10.8692C 0.572573 10.0816 0.121121 9.00141 0.033033 7.62869C 0.011011 7.24613 0 6.75106 0 6.14346C 0 5.49086 0.011011 4.96203 0.033033 4.55696C 0.0990991 3.16174 0.528529 2.05907 1.32132 1.24895C 2.13614 0.416315 3.29229 0 4.78979 0C 6.28729 0 7.43243 0.416315 8.22523 1.24895C 9.04004 2.05907 9.48048 3.16174 9.54655 4.55696C 9.59059 5.4571 9.61261 6.03094 9.61261 6.27848C 9.61261 6.50352 9.59059 6.95359 9.54655 7.62869C 9.48048 9.00141 9.02903 10.0816 8.19219 10.8692C 7.35536 11.6343 6.22122 12.0169 4.78979 12.0169ZM 2.01501 23.7975C 1.81682 23.7975 1.65165 23.7412 1.51952 23.6287C 1.38739 23.4937 1.32132 23.3249 1.32132 23.1224C 1.32132 22.9873 1.36537 22.8636 1.45345 22.7511L 17.7718 0.810127C 17.9479 0.562588 18.1021 0.393812 18.2342 0.303797C 18.3884 0.213783 18.5976 0.168776 18.8619 0.168776L 19.952 0.168776C 20.1722 0.168776 20.3373 0.236287 20.4474 0.371308C 20.5796 0.483826 20.6456 0.64135 20.6456 0.843882C 20.6456 0.978903 20.6016 1.10267 20.5135 1.21519L 4.22823 23.1561C 4.05205 23.4037 3.88689 23.5724 3.73273 23.6624C 3.6006 23.7525 3.39139 23.7975 3.10511 23.7975L 2.01501 23.7975ZM 4.78979 9.92405C 5.58258 9.92405 6.15516 9.68776 6.50751 9.21519C 6.88188 8.74262 7.1021 8.16878 7.16817 7.49367C 7.21221 6.68354 7.23423 6.21097 7.23423 6.07595C 7.23423 5.87342 7.21221 5.4121 7.16817 4.69198C 7.12412 3.99437 6.9039 3.40928 6.50751 2.93671C 6.13313 2.46414 5.56056 2.22785 4.78979 2.22785C 4.01902 2.22785 3.44645 2.46414 3.07207 2.93671C 2.6977 3.40928 2.48849 3.99437 2.44444 4.69198C 2.42242 5.05204 2.41141 5.51336 2.41141 6.07595C 2.41141 6.61603 2.42242 7.08861 2.44444 7.49367C 2.51051 8.19128 2.71972 8.77637 3.07207 9.24894C 3.44645 9.69901 4.01902 9.92405 4.78979 9.92405ZM 17.1441 24C 15.7127 24 14.5786 23.5949 13.7417 22.7848C 12.9269 21.9522 12.4755 20.8495 12.3874 19.4768C 12.3654 19.0942 12.3544 18.5992 12.3544 17.9916C 12.3544 17.339 12.3654 16.8101 12.3874 16.4051C 12.4755 15.0098 12.9159 13.9072 13.7087 13.097C 14.5235 12.2644 15.6687 11.8481 17.1441 11.8481C 18.6416 11.8481 19.7868 12.2644 20.5796 13.097C 21.3944 13.9072 21.8458 15.0098 21.9339 16.4051C 21.978 17.2152 22 17.744 22 17.9916C 22 18.2166 21.978 18.7117 21.9339 19.4768C 21.8458 20.8495 21.3834 21.9522 20.5465 22.7848C 19.7097 23.5949 18.5756 24 17.1441 24ZM 17.1441 21.7722C 17.9369 21.7722 18.5095 21.5359 18.8619 21.0633C 19.2362 20.5907 19.4565 20.0169 19.5225 19.3418C 19.5666 18.5316 19.5886 18.0591 19.5886 17.9241C 19.5886 17.7215 19.5666 17.2602 19.5225 16.5401C 19.4785 15.8425 19.2693 15.2574 18.8949 14.7848C 18.5205 14.3122 17.9369 14.0759 17.1441 14.0759C 16.3734 14.0759 15.8008 14.3122 15.4264 14.7848C 15.0521 15.2574 14.8428 15.8425 14.7988 16.5401C 14.7768 16.9001 14.7658 17.3615 14.7658 17.9241C 14.7658 18.4641 14.7768 18.9367 14.7988 19.3418C 14.8649 20.0169 15.0741 20.5907 15.4264 21.0633C 15.8008 21.5359 16.3734 21.7722 17.1441 21.7722Z"/>
</defs>
</svg>
