<svg width="852" height="90" viewBox="0 0 852 90" version="1.1" xmlns="http://www.w3.org/2000/svg" xmlns:xlink="http://www.w3.org/1999/xlink">
<title>file up</title>
<desc>Created using Figma</desc>
<g id="Canvas" transform="translate(8196 12516)">
<g id="file up">
<g id="Rectangle">
<use xlink:href="#path0_fill" transform="translate(-8196 -12516)" fill="#FBFBFB"/>
<mask id="mask0_outline_ins">
<use xlink:href="#path0_fill" fill="white" transform="translate(-8196 -12516)"/>
</mask>
<g mask="url(#mask0_outline_ins)">
<use xlink:href="#path1_stroke_2x" transform="translate(-8196 -12516)" fill="#E0E0E0"/>
</g>
</g>
<g id="Arrow">
<use xlink:href="#path2_stroke" transform="matrix(7.15637e-17 1 -1 5.23925e-17 -7909.66 -12488)" fill="#E0E0E0"/>
</g>
<g id="Arrow">
<use xlink:href="#path2_stroke" transform="matrix(7.15637e-17 1 -1 5.23925e-17 -7851.23 -12488)" fill="#E0E0E0"/>
</g>
<g id="Arrow">
<use xlink:href="#path2_stroke" transform="matrix(7.15637e-17 1 -1 5.23925e-17 -7687.6 -12488)" fill="#E0E0E0"/>
</g>
<g id="Arrow">
<use xlink:href="#path2_stroke" transform="matrix(7.15637e-17 1 -1 5.23925e-17 -7629.17 -12488)" fill="#E0E0E0"/>
</g>
<g id="Group">
<g id="Vector">
<use xlink:href="#path3_stroke" transform="translate(-7792.79 -12498)" fill="#BDBDBD"/>
</g>
<g id="Vector 2">
<use xlink:href="#path4_stroke" transform="translate(-7763.57 -12460)" fill="#BDBDBD"/>
</g>
<g id="file">
<use xlink:href="#path5_fill" transform="translate(-7782.27 -12480)" fill="#BDBDBD"/>
</g>
</g>
</g>
</g>
<defs>
<path id="path0_fill" d="M 0 0L 852 0L 852 90L 0 90L 0 0Z"/>
<path id="path1_stroke_2x" d="M 0 0L 0 -1L -1 -1L -1 0L 0 0ZM 852 0L 853 0L 853 -1L 852 -1L 852 0ZM 852 90L 852 91L 853 91L 853 90L 852 90ZM 0 90L -1 90L -1 91L 0 91L 0 90ZM 0 1L 852 1L 852 -1L 0 -1L 0 1ZM 851 0L 851 90L 853 90L 853 0L 851 0ZM 852 89L 0 89L 0 91L 852 91L 852 89ZM 1 90L 1 0L -1 0L -1 90L 1 90Z"/>
<path id="path2_stroke" d="M 0 -1.5C -0.828427 -1.5 -1.5 -0.828427 -1.5 0C -1.5 0.828427 -0.828427 1.5 0 1.5L 0 -1.5ZM 33 0L 18 -8.66025L 18 8.66025L 33 0ZM 0 1.5L 19.5 1.5L 19.5 -1.5L 0 -1.5L 0 1.5Z"/>
<path id="path3_stroke" d="M 0 0L 0 -1L -1 -1L -1 0L 0 0ZM 0 50.5L -1 50.5L -1 51.5L 0 51.5L 0 50.5ZM 43.2428 12L 44.2428 12L 44.2428 11.5395L 43.8929 11.2402L 43.2428 12ZM 29.2181 0L 29.8682 -0.759823L 29.5875 -1L 29.2181 -1L 29.2181 0ZM 29.2181 12L 28.2181 12L 28.2181 13L 29.2181 13L 29.2181 12ZM -1 0L -1 50.5L 1 50.5L 1 0L -1 0ZM 43.8929 11.2402L 29.8682 -0.759823L 28.568 0.759823L 42.5927 12.7598L 43.8929 11.2402ZM 29.2181 -1L 0 -1L 0 1L 29.2181 1L 29.2181 -1ZM 29.2181 13L 43.2428 13L 43.2428 11L 29.2181 11L 29.2181 13ZM 28.2181 0L 28.2181 12L 30.2181 12L 30.2181 0L 28.2181 0ZM 0 51.5L 30.9712 51.5L 30.9712 49.5L 0 49.5L 0 51.5ZM 44.2428 39L 44.2428 12L 42.2428 12L 42.2428 39L 44.2428 39Z"/>
<path id="path4_stroke" d="M 9.76543 0C 9.76543 -0.552285 9.31772 -1 8.76543 -1C 8.21315 -1 7.76543 -0.552285 7.76543 0L 9.76543 0ZM 7.76543 15C 7.76543 15.5523 8.21315 16 8.76543 16C 9.31772 16 9.76543 15.5523 9.76543 15L 7.76543 15ZM 0 6.5C -0.552285 6.5 -1 6.94772 -1 7.5C -1 8.05229 -0.552285 8.5 0 8.5L 0 6.5ZM 17.5309 8.5C 18.0831 8.5 18.5309 8.05229 18.5309 7.5C 18.5309 6.94772 18.0831 6.5 17.5309 6.5L 17.5309 8.5ZM 7.76543 0L 7.76543 15L 9.76543 15L 9.76543 0L 7.76543 0ZM 0 8.5L 17.5309 8.5L 17.5309 6.5L 0 6.5L 0 8.5Z"/>
<path id="path5_fill" d="M 1.55859 13L 1.55859 6.27344L 0.328125 6.27344L 0.328125 5.60352L 1.55859 5.60352L 1.55859 4.84473C 1.55859 4.05631 1.77279 3.44564 2.20117 3.0127C 2.62956 2.5752 3.2334 2.35645 4.0127 2.35645C 4.62337 2.35645 5.25228 2.49089 5.89941 2.75977L 5.7627 3.46387C 5.20671 3.22233 4.6416 3.10156 4.06738 3.10156C 2.94173 3.10156 2.37891 3.68717 2.37891 4.8584L 2.37891 5.60352L 4.1084 5.60352L 4.1084 6.27344L 2.37891 6.27344L 2.37891 13L 1.55859 13ZM 6.34375 13L 5.52344 13L 5.52344 5.60352L 6.34375 5.60352L 6.34375 13ZM 9.50195 13L 8.68164 13L 8.68164 2.5L 9.50195 2.5L 9.50195 13ZM 14.5947 13.1367C 13.9658 13.1367 13.3962 12.9818 12.8857 12.6719C 12.3799 12.362 11.9857 11.9313 11.7031 11.3799C 11.4206 10.8239 11.2793 10.2018 11.2793 9.51367L 11.2793 9.21973C 11.2793 8.50879 11.416 7.86849 11.6895 7.29883C 11.9674 6.72917 12.3525 6.28255 12.8447 5.95898C 13.3369 5.63086 13.8701 5.4668 14.4443 5.4668C 15.3421 5.4668 16.0531 5.77441 16.5771 6.38965C 17.1058 7.00033 17.3701 7.83659 17.3701 8.89844L 17.3701 9.35645L 12.0928 9.35645L 12.0928 9.51367C 12.0928 10.3522 12.332 11.0518 12.8105 11.6123C 13.2936 12.1683 13.8997 12.4463 14.6289 12.4463C 15.0664 12.4463 15.4515 12.3665 15.7842 12.207C 16.1214 12.0475 16.4268 11.7923 16.7002 11.4414L 17.2129 11.8311C 16.6113 12.7015 15.7386 13.1367 14.5947 13.1367ZM 14.4443 6.16406C 13.8291 6.16406 13.3096 6.38965 12.8857 6.84082C 12.4665 7.29199 12.2113 7.89811 12.1201 8.65918L 16.5566 8.65918L 16.5566 8.57031C 16.5339 7.85938 16.3311 7.2806 15.9482 6.83398C 15.5654 6.38737 15.0641 6.16406 14.4443 6.16406Z"/>
</defs>
</svg>
