<svg width="109" height="153" viewBox="0 0 109 153" version="1.1" xmlns="http://www.w3.org/2000/svg" xmlns:xlink="http://www.w3.org/1999/xlink">
<title>Group</title>
<desc>Created using Figma</desc>
<g id="Canvas" transform="translate(14508 15160)">
<g id="Group">
<g id="Vector">
<use xlink:href="#path0_fill" transform="translate(-14475 -15093)" fill="#F2F2F2"/>
</g>
<g id="Rectangle">
<use xlink:href="#path1_fill" transform="translate(-14452.6 -15070.1)" fill="#F2F2F2"/>
</g>
<g id="Ellipse">
<use xlink:href="#path2_fill" transform="translate(-14485.4 -15055)" fill="#FFFFFF"/>
</g>
<g id="Ellipse 2 (Stroke)">
<use xlink:href="#path3_fill" transform="translate(-14488 -15057)" fill="#F2F2F2"/>
<mask id="mask0_outline_out">
<rect id="mask0_outline_inv" fill="white" x="-4" y="-4" width="54" height="54" transform="translate(-14488 -15057)"/>
<use xlink:href="#path3_fill" fill="black" transform="translate(-14488 -15057)"/>
</mask>
<g mask="url(#mask0_outline_out)">
<use xlink:href="#path4_stroke_2x" transform="translate(-14488 -15057)" fill="#FFFFFF"/>
</g>
</g>
<g id="Vector 2">
<use xlink:href="#path5_stroke" transform="translate(-14475.8 -15043.6)" fill="#F2F2F2"/>
</g>
</g>
</g>
<defs>
<path id="path0_fill" d="M 74.2663 14.1359L 65.1395 1.83836C 64.2774 0.676715 62.9694 3.25608e-08 61.5862 3.25608e-08L 14.4137 3.25608e-08C 13.0305 3.25608e-08 11.7226 0.676581 10.8605 1.83823L 1.73359 14.1359C 0.779992 15.4205 0 17.816 0 19.4588L 0 61.9C 0 65.269 2.54289 68 5.67987 68L 70.32 68C 73.4571 68 75.9999 65.2689 76 61.9L 76 19.4588C 75.9999 17.816 75.2199 15.4205 74.2663 14.1359ZM 39.5679 49.8907C 38.9883 51.5217 39.2159 53.7468 39.8813 55.6535C 43.5146 55.8937 46.223 56.8105 46.223 57.9077C 46.223 59.1876 42.5413 60.2252 37.9998 60.2252C 33.4583 60.2252 29.7767 59.1878 29.7767 57.9077C 29.7767 56.8103 32.4851 55.8935 36.1183 55.6535C 36.7837 53.7468 37.0114 51.5217 36.4318 49.8907C 27.312 49.2492 24.5105 43.0325 24.5105 39.0573C 24.5105 34.0085 26.5276 27.9727 27.7885 24.9888L 37.2827 24.9322L 34.1348 34.2665L 38.0995 34.3847L 36.3381 41.571L 42.2214 31.5633L 38.9427 31.5633L 41.6253 24.932L 48.1873 24.932C 49.4467 27.8967 51.4888 33.9779 51.4888 39.0573C 51.4892 43.0324 48.6876 49.2492 39.5679 49.8907ZM 4.71634 14.0318L 7.7387 9.95921L 28.3606 9.95921L 30.3956 6.36584L 10.4057 6.36584L 12.6371 3.35917C 13.0707 2.77501 13.7182 2.43999 14.4137 2.43999L 61.5862 2.43999C 62.2819 2.43999 62.9293 2.77501 63.363 3.35917L 65.5944 6.36584L 45.2482 6.36584L 46.3841 9.95921L 68.2612 9.95921L 71.2837 14.0318L 4.71634 14.0318Z"/>
<path id="path1_fill" d="M 0 0L 40.5888 0L 40.5888 38.1818L 0 38.1818L 0 0Z"/>
<path id="path2_fill" d="M 41.0083 20.7348C 41.0083 32.1864 31.8283 41.4697 20.5042 41.4697C 9.18002 41.4697 0 32.1864 0 20.7348C 0 9.28331 9.18002 0 20.5042 0C 31.8283 0 41.0083 9.28331 41.0083 20.7348Z"/>
<path id="path3_fill" fill-rule="evenodd" d="M 23 5.11111C 13.1202 5.11111 5.11111 13.1202 5.11111 23C 5.11111 32.8798 13.1202 40.8889 23 40.8889C 32.8798 40.8889 40.8889 32.8798 40.8889 23C 40.8889 13.1202 32.8798 5.11111 23 5.11111ZM 0 23C 0 10.2975 10.2975 0 23 0C 35.7026 0 46 10.2975 46 23C 46 35.7026 35.7026 46 23 46C 10.2975 46 0 35.7026 0 23Z"/>
<path id="path4_stroke_2x" d="M 9.11111 23C 9.11111 15.3294 15.3294 9.11111 23 9.11111L 23 1.11111C 10.9111 1.11111 1.11111 10.9111 1.11111 23L 9.11111 23ZM 23 36.8889C 15.3294 36.8889 9.11111 30.6706 9.11111 23L 1.11111 23C 1.11111 35.0889 10.9111 44.8889 23 44.8889L 23 36.8889ZM 36.8889 23C 36.8889 30.6706 30.6706 36.8889 23 36.8889L 23 44.8889C 35.0889 44.8889 44.8889 35.0889 44.8889 23L 36.8889 23ZM 23 9.11111C 30.6706 9.11111 36.8889 15.3294 36.8889 23L 44.8889 23C 44.8889 10.9111 35.0889 1.11111 23 1.11111L 23 9.11111ZM 23 -4C 8.08831 -4 -4 8.08831 -4 23L 4 23C 4 12.5066 12.5066 4 23 4L 23 -4ZM 50 23C 50 8.08831 37.9117 -4 23 -4L 23 4C 33.4934 4 42 12.5066 42 23L 50 23ZM 23 50C 37.9117 50 50 37.9117 50 23L 42 23C 42 33.4934 33.4934 42 23 42L 23 50ZM -4 23C -4 37.9117 8.08831 50 23 50L 23 42C 12.5066 42 4 33.4934 4 23L -4 23Z"/>
<path id="path5_stroke" d="M 1.97296 5.02247C 1.12499 3.93283 -0.445748 3.73692 -1.53539 4.58489C -2.62502 5.43286 -2.82094 7.0036 -1.97296 8.09324L 1.97296 5.02247ZM 9.45075 18.702L 7.47778 20.2374L 9.69603 23.0878L 11.5826 20.0078L 9.45075 18.702ZM 23.0381 1.30582C 23.7592 0.128423 23.3894 -1.41068 22.212 -2.13186C 21.0346 -2.85305 19.4955 -2.48321 18.7743 -1.30582L 23.0381 1.30582ZM -1.97296 8.09324L 7.47778 20.2374L 11.4237 17.1666L 1.97296 5.02247L -1.97296 8.09324ZM 11.5826 20.0078L 23.0381 1.30582L 18.7743 -1.30582L 7.31888 17.3962L 11.5826 20.0078Z"/>
</defs>
</svg>
