<svg width="104" height="149" viewBox="0 0 104 149" version="1.1" xmlns="http://www.w3.org/2000/svg" xmlns:xlink="http://www.w3.org/1999/xlink">
<title>Group</title>
<desc>Created using Figma</desc>
<g id="Canvas" transform="translate(14957 15160)">
<g id="Group">
<g id="Vector">
<use xlink:href="#path0_fill" transform="translate(-14943 -15093)" fill="#F2F2F2"/>
</g>
</g>
</g>
<defs>
<path id="path0_fill" d="M 89 19.5024L 88.9999 62.0394C 88.9999 65.4158 86.1748 68.1533 82.6897 68.1533L 48.5556 68.1533C 49.5266 65.4626 50.0813 62.5847 50.0813 59.5773C 50.0813 55.1557 48.9228 50.9524 46.8709 47.2604C 47.4315 46.9893 47.9383 46.6217 48.3609 46.1725L 49.5243 44.9583C 51.4715 42.921 51.3533 39.7137 49.236 37.7889L 44.8671 33.883C 43.8984 33.0171 42.6375 32.5396 41.3175 32.5396C 39.8596 32.5396 38.4583 33.1344 37.4821 34.1588L 36.3137 35.3768C 36.0107 35.6957 35.7531 36.0431 35.5472 36.4145C 34.8473 36.0611 34.1299 35.7364 33.3955 35.4426C 33.8292 34.7034 34.077 33.8496 34.077 32.941L 34.077 31.5249C 34.077 28.7306 31.7268 26.4583 28.8379 26.4583L 18.059 26.4583C 16.0156 26.4583 14.2612 27.6102 13.4013 29.2692L 13.4013 19.5028C 13.4013 17.8562 14.2681 15.4554 15.3273 14.1677L 25.4669 1.84242C 26.4249 0.678155 27.8778 2.79497e-08 29.4145 2.79497e-08L 72.9871 2.79497e-08C 74.5237 2.79497e-08 75.9769 0.678155 76.9348 1.84242L 87.0744 14.1677C 88.1333 15.455 89 17.8558 89 19.5024ZM 83.7605 14.063L 80.4026 9.98141L 62.4082 9.98141L 61.1462 6.37985L 77.4397 6.37985L 74.9607 3.36626C 74.479 2.78082 73.7596 2.44505 72.987 2.44505L 29.4144 2.44505C 28.6416 2.44505 27.9223 2.78082 27.4406 3.36626L 24.9616 6.3797L 40.8596 6.3797L 38.5987 9.98127L 21.9986 9.98127L 18.6407 14.063L 83.7605 14.063ZM 46.6668 40.4835L 42.3003 36.579C 41.7157 36.0557 40.7946 36.0899 40.2545 36.6563L 39.0941 37.8662C 38.5539 38.4326 38.5894 39.3251 39.1827 39.8484L 43.5402 43.7614C 44.1337 44.2848 45.0459 44.2507 45.586 43.6758L 46.7464 42.4658C 47.2868 41.8994 47.2513 41.0155 46.6668 40.4835ZM 26.2784 37.3514L 26.2784 34.3479L 28.838 34.3479C 29.6351 34.3479 30.2907 33.7129 30.2907 32.9405L 30.2907 31.5246C 30.2907 30.7523 29.6353 30.1257 28.838 30.1257L 18.0593 30.1257C 17.2622 30.1257 16.6157 30.7522 16.6157 31.5246L 16.6157 32.9405C 16.6157 33.7128 17.2622 34.3479 18.0593 34.3479L 20.3886 34.3479L 20.3886 37.3084C 12.1517 38.2524 5.23442 43.3925 1.9929 50.4637C 0.70851 53.2437 0 56.3331 0 59.5769C 0 60.315 0.0353382 61.0443 0.10616 61.7568C 1.23975 73.1183 11.1241 82 23.1429 82C 35.9322 82 46.2947 71.96 46.2947 59.5769C 46.2948 48.2154 37.5887 38.8359 26.2784 37.3514ZM 23.1431 76.4564C 13.5245 76.4564 5.72159 68.8965 5.72159 59.5769C 5.72159 57.5947 6.076 55.6983 6.71354 53.9389C 6.71354 53.9303 6.71354 53.9303 6.71354 53.9303C 7.84727 50.8325 9.88424 48.1554 12.5237 46.1901C 12.5237 46.1901 12.5237 46.1901 12.5326 46.1901C 15.4731 43.9932 19.1488 42.6887 23.1432 42.6887C 32.7706 42.6887 40.5735 50.2489 40.5735 59.5769C 40.5734 68.8964 32.7703 76.4564 23.1431 76.4564ZM 37.1635 59.5769L 23.1431 59.5769L 23.1431 45.8553C 30.6271 45.8553 37.1635 51.2185 37.1635 59.5769Z"/>
</defs>
</svg>
