<svg width="108" height="136" viewBox="0 0 108 136" version="1.1" xmlns="http://www.w3.org/2000/svg" xmlns:xlink="http://www.w3.org/1999/xlink">
<title>Group</title>
<desc>Created using Figma</desc>
<g id="Canvas" transform="translate(15405 15160)">
<g id="Group">
<g id="Subtract">
<use xlink:href="#path0_fill" transform="matrix(1 1.11022e-16 -1.11022e-16 1 -15380 -15117)" fill="#F2F2F2"/>
</g>
<g id="new">
<use xlink:href="#path1_fill" transform="matrix(1 5.60457e-17 -0.000434333 1 -15360.1 -15095.4)" fill="#FFFFFF"/>
<use xlink:href="#path2_fill" transform="matrix(1 5.60457e-17 -0.000434333 1 -15360.1 -15095.4)" fill="#FFFFFF"/>
<use xlink:href="#path3_fill" transform="matrix(1 5.60457e-17 -0.000434333 1 -15360.1 -15095.4)" fill="#FFFFFF"/>
</g>
<g id="Vector (Stroke)">
<use xlink:href="#path4_fill" transform="matrix(1 -2.41653e-16 2.48236e-16 1 -15367.5 -15038.6)" fill="#FFFFFF"/>
</g>
<g id="Vector (Stroke)">
<use xlink:href="#path4_fill" transform="matrix(1 -2.41653e-16 2.48236e-16 1 -15367.5 -15049)" fill="#FFFFFF"/>
</g>
<g id="Vector (Stroke)">
<use xlink:href="#path4_fill" transform="matrix(1 -2.41653e-16 2.48236e-16 1 -15367.5 -15060.2)" fill="#FFFFFF"/>
</g>
<g id="Vector (Stroke)">
<use xlink:href="#path4_fill" transform="matrix(1 -2.41653e-16 2.48236e-16 1 -15367.5 -15070.6)" fill="#FFFFFF"/>
</g>
<g id="Vector (Stroke)">
<use xlink:href="#path4_fill" transform="matrix(1 -2.41653e-16 2.48236e-16 1 -15367.5 -15081.1)" fill="#FFFFFF"/>
</g>
<g id="Rectangle 8">
<use xlink:href="#path5_fill" transform="matrix(0.71052 0.703677 -0.71052 0.703677 -15310.5 -15063.1)" fill="#F2F2F2"/>
<use xlink:href="#path6_stroke" transform="matrix(0.71052 0.703677 -0.71052 0.703677 -15310.5 -15063.1)" fill="#FFFFFF"/>
</g>
<g id="Polygon">
<use xlink:href="#path7_fill" transform="matrix(0.728578 0.684963 -0.691971 0.721925 -15305.7 -15069.3)" fill="#F2F2F2"/>
<use xlink:href="#path8_stroke" transform="matrix(0.728578 0.684963 -0.691971 0.721925 -15305.7 -15069.3)" fill="#FFFFFF"/>
</g>
</g>
</g>
<defs>
<path id="path0_fill" fill-rule="evenodd" d="M 34.0324 7.8688e-32C 40.3075 -6.89963e-16 45.6198 4.08666 47.4009 9.71975L 66.1774 9.71975C 67.1791 9.71975 67.9913 10.5241 67.9913 11.5162L 67.9913 88.9224C 67.9913 89.9144 67.1791 90.7188 66.1774 90.7188L 1.81388 90.7188C 0.812172 90.7188 1.11212e-16 89.9144 7.00864e-33 88.9224L 7.00864e-33 11.5162C -1.11212e-16 10.5241 0.812172 9.71975 1.81388 9.71975L 20.5611 9.71975C 22.3423 4.08666 27.6546 6.89963e-16 33.9296 7.8688e-32L 34.0324 7.8688e-32ZM 33.981 14.3713C 36.7355 14.3713 38.9692 12.1591 38.9692 9.43116C 38.9692 6.70321 36.7355 4.49103 33.981 4.49103C 31.2265 4.49103 28.9928 6.70321 28.9928 9.43116C 28.9928 12.1591 31.2265 14.3713 33.981 14.3713Z"/>
<path id="path1_fill" d="M 0.303684 8.88954C 0.219327 8.88954 0.147624 8.85991 0.0885745 8.80064C 0.0295248 8.74138 0 8.66942 0 8.58475L 0 0.317484C 0 0.224355 0.025307 0.148159 0.075921 0.0888954C 0.134971 0.0296318 0.210892 0 0.303684 0L 1.278 0C 1.37923 0 1.45515 0.0211656 1.50577 0.0634967C 1.55638 0.0973617 1.60278 0.143926 1.64496 0.203189L 5.28916 5.89249L 5.28916 0.317484C 5.28916 0.224355 5.31447 0.148159 5.36508 0.0888954C 5.42413 0.0296318 5.50005 0 5.59285 0L 6.65574 0C 6.74853 0 6.82445 0.0296318 6.8835 0.0888954C 6.94255 0.148159 6.97208 0.224355 6.97208 0.317484L 6.97208 8.57205C 6.97208 8.66518 6.94255 8.74138 6.8835 8.80064C 6.82445 8.85991 6.75275 8.88954 6.66839 8.88954L 5.68142 8.88954C 5.53802 8.88954 5.4157 8.82181 5.31447 8.68635L 1.68292 3.12404L 1.68292 8.58475C 1.68292 8.67788 1.65339 8.75408 1.59434 8.81334C 1.53529 8.86414 1.45937 8.88954 1.36658 8.88954L 0.303684 8.88954Z"/>
<path id="path2_fill" d="M 9.88278 8.88954C 9.79842 8.88954 9.72672 8.85991 9.66767 8.80064C 9.60862 8.74138 9.57909 8.66942 9.57909 8.58475L 9.57909 0.317484C 9.57909 0.224355 9.6044 0.148159 9.65502 0.0888954C 9.71407 0.0296318 9.78999 0 9.88278 0L 15.4503 0C 15.5431 0 15.619 0.0296318 15.6781 0.0888954C 15.7371 0.148159 15.7667 0.224355 15.7667 0.317484L 15.7667 1.15564C 15.7667 1.24877 15.7371 1.32496 15.6781 1.38423C 15.619 1.43503 15.5431 1.46042 15.4503 1.46042L 11.2873 1.46042L 11.2873 3.70821L 15.1719 3.70821C 15.2647 3.70821 15.3407 3.73784 15.3997 3.7971C 15.4588 3.8479 15.4883 3.91986 15.4883 4.01299L 15.4883 4.80035C 15.4883 4.89348 15.4588 4.96968 15.3997 5.02894C 15.3407 5.07974 15.2647 5.10513 15.1719 5.10513L 11.2873 5.10513L 11.2873 7.42911L 15.5515 7.42911C 15.6443 7.42911 15.7203 7.45875 15.7793 7.51801C 15.8384 7.57727 15.8679 7.65347 15.8679 7.7466L 15.8679 8.58475C 15.8679 8.67788 15.8384 8.75408 15.7793 8.81334C 15.7203 8.86414 15.6443 8.88954 15.5515 8.88954L 9.88278 8.88954Z"/>
<path id="path3_fill" d="M 19.5383 8.88954C 19.4118 8.88954 19.3105 8.85567 19.2346 8.78794C 19.1587 8.72021 19.1123 8.62709 19.0954 8.50856L 17.5896 0.368281L 17.577 0.266686C 17.577 0.19049 17.6023 0.126993 17.6529 0.076196C 17.712 0.0253986 17.7752 0 17.8427 0L 18.9562 0C 19.1671 0 19.2852 0.0846622 19.3105 0.253987L 20.3608 6.00679L 21.4996 2.28588C 21.5839 2.07423 21.7231 1.9684 21.9171 1.9684L 22.6004 1.9684C 22.8113 1.9684 22.9463 2.07423 23.0053 2.28588L 24.1568 5.99409L 25.2071 0.253987C 25.2239 0.160858 25.2577 0.0973617 25.3083 0.0634967C 25.3673 0.0211656 25.4517 0 25.5614 0L 26.6749 0C 26.7423 0 26.8014 0.0253986 26.852 0.076196C 26.9026 0.126993 26.9279 0.19049 26.9279 0.266686C 26.9279 0.309017 26.9237 0.342882 26.9153 0.368281L 25.4095 8.50856C 25.3673 8.76255 25.2197 8.88954 24.9666 8.88954L 24.1189 8.88954C 24.0008 8.88954 23.9037 8.85991 23.8278 8.80064C 23.7519 8.74138 23.7013 8.66518 23.676 8.57205L 22.2588 4.33048L 20.8416 8.57205C 20.7572 8.78371 20.6054 8.88954 20.3861 8.88954L 19.5383 8.88954Z"/>
<path id="path4_fill" fill-rule="evenodd" d="M 0 1.20295C 0 0.538581 0.543584 0 1.21413 0L 41.6851 0C 42.3556 0 42.8992 0.538581 42.8992 1.20295C 42.8992 1.86733 42.3556 2.40591 41.6851 2.40591L 1.21413 2.40591C 0.543584 2.40591 0 1.86733 0 1.20295Z"/>
<path id="path5_fill" d="M 0 0L 9.92842 0L 9.92842 38.2934L 9.92842 43.2266C 9.92842 43.7789 9.4807 44.2266 8.92842 44.2266L 1 44.2266C 0.447715 44.2266 0 43.7789 0 43.2266L 0 38.2934L 0 0Z"/>
<path id="path6_stroke" d="M 0 0L 0 -1C -0.552285 -1 -1 -0.552285 -1 2.22045e-16L 0 0ZM 9.92842 0L 10.9284 0C 10.9284 -0.552285 10.4807 -1 9.92842 -1L 9.92842 0ZM 0 1L 9.92842 1L 9.92842 -1L 0 -1L 0 1ZM 8.92842 43.2266L 1 43.2266L 1 45.2266L 8.92842 45.2266L 8.92842 43.2266ZM 1 43.2266L 1 38.2934L -1 38.2934L -1 43.2266L 1 43.2266ZM 1 38.2934L 1 0L -1 0L -1 38.2934L 1 38.2934ZM 8.92842 0L 8.92842 38.2934L 10.9284 38.2934L 10.9284 0L 8.92842 0ZM 8.92842 38.2934L 8.92842 43.2266L 10.9284 43.2266L 10.9284 38.2934L 8.92842 38.2934ZM 0 39.2934L 9.92842 39.2934L 9.92842 37.2934L 0 37.2934L 0 39.2934ZM 1 43.2266L 1 43.2266L -1 43.2266C -1 44.3312 -0.104569 45.2266 1 45.2266L 1 43.2266ZM 8.92842 45.2266C 10.033 45.2266 10.9284 44.3312 10.9284 43.2266L 8.92842 43.2266L 8.92842 45.2266Z"/>
<path id="path7_fill" d="M 5.68892 0L 10.6157 7.901L 0.762171 7.901L 5.68892 0Z"/>
<path id="path8_stroke" d="M 5.68892 0L 6.53747 -0.52912C 6.35484 -0.822003 6.03408 -1 5.68892 -1C 5.34376 -1 5.023 -0.822003 4.84037 -0.52912L 5.68892 0ZM 10.6157 7.901L 10.6157 8.901C 10.979 8.901 11.3138 8.70392 11.4901 8.38622C 11.6664 8.06852 11.6565 7.68019 11.4642 7.37188L 10.6157 7.901ZM 0.762171 7.901L -0.0863761 7.37188C -0.278627 7.68019 -0.288521 8.06852 -0.112221 8.38622C 0.0640797 8.70392 0.398831 8.901 0.762171 8.901L 0.762171 7.901ZM 4.84037 0.52912L 9.76712 8.43012L 11.4642 7.37188L 6.53747 -0.52912L 4.84037 0.52912ZM 10.6157 6.901L 0.762171 6.901L 0.762171 8.901L 10.6157 8.901L 10.6157 6.901ZM 1.61072 8.43012L 6.53747 0.52912L 4.84037 -0.52912L -0.0863761 7.37188L 1.61072 8.43012Z"/>
</defs>
</svg>
