<svg width="27" height="120" viewBox="0 0 27 120" version="1.1" xmlns="http://www.w3.org/2000/svg" xmlns:xlink="http://www.w3.org/1999/xlink">
<title>Group 10</title>
<desc>Created using Figma</desc>
<g id="Canvas" transform="translate(25323 18351)">
<g id="Group 10">
<g id="Group 9">
<g id="&#239;&#132;&#133;">
<use xlink:href="#path0_fill" transform="translate(-25312.9 -18345)" fill="#0097A6"/>
</g>
</g>
<g id="Group 9.1">
<g id="&#239;&#132;&#133;">
<use xlink:href="#path1_fill" transform="translate(-25312.9 -18321)" fill="#C62828"/>
</g>
</g>
<g id="Group 9.2">
<g id="&#239;&#132;&#133;">
<use xlink:href="#path1_fill" transform="translate(-25312.9 -18297)" fill="#4EBF9D"/>
</g>
</g>
<g id="Group 9.3">
<g id="&#239;&#132;&#133;">
<use xlink:href="#path1_fill" transform="translate(-25312.9 -18273)" fill="#FF6363"/>
</g>
</g>
<g id="Group 9.4">
<g id="&#239;&#132;&#133;">
<use xlink:href="#path1_fill" transform="translate(-25312.9 -18249)" fill="#FFB178"/>
</g>
</g>
</g>
</g>
<defs>
<path id="path0_fill" d="M 6.49554 5.5692C 6.49554 5.47991 6.45089 5.37946 6.38393 5.3125L 1.18304 0.111607C 1.11607 0.0446428 1.01562 0 0.926339 0C 0.837054 0 0.736607 0.0446428 0.669643 0.111607L 0.111607 0.669643C 0.0446429 0.736607 0 0.837053 0 0.926339C 0 1.01562 0.0446429 1.11607 0.111607 1.18304L 4.49777 5.5692L 0.111607 9.95536C 0.0446429 10.0223 0 10.1228 0 10.2121C 0 10.3125 0.0446429 10.4018 0.111607 10.4688L 0.669643 11.0268C 0.736607 11.0938 0.837054 11.1384 0.926339 11.1384C 1.01562 11.1384 1.11607 11.0938 1.18304 11.0268L 6.38393 5.82589C 6.45089 5.75893 6.49554 5.65848 6.49554 5.5692Z"/>
<path id="path1_fill" d="M 6.49554 5.5692C 6.49554 5.47991 6.45089 5.37946 6.38393 5.3125L 1.18304 0.111607C 1.11607 0.0446428 1.01562 0 0.926339 0C 0.837054 0 0.736607 0.0446428 0.669643 0.111607L 0.111607 0.669643C 0.0446429 0.736607 0 0.837053 0 0.926339C 0 1.01562 0.0446429 1.11607 0.111607 1.18304L 4.49777 5.5692L 0.111607 9.95536C 0.0446429 10.0223 0 10.1228 0 10.2121C 0 10.3125 0.0446429 10.4018 0.111607 10.4688L 0.669643 11.0268C 0.736607 11.0938 0.837054 11.1384 0.926339 11.1384C 1.01562 11.1384 1.11607 11.0938 1.18304 11.0268L 6.38393 5.82589C 6.45089 5.75893 6.49554 5.65848 6.49554 5.5692Z"/>
</defs>
</svg>
