<svg width="14" height="10" viewBox="0 0 14 10" version="1.1" xmlns="http://www.w3.org/2000/svg" xmlns:xlink="http://www.w3.org/1999/xlink">
<title>email</title>
<desc>Created using Figma</desc>
<g id="Canvas" transform="translate(9689 12960)">
<g id="email">
<g id="Group">
<g id="Group">
<g id="Vector">
<use xlink:href="#path0_fill" transform="translate(-9689 -12959.2)" fill="#828282"/>
</g>
</g>
</g>
<g id="Group">
<g id="Group">
<g id="Vector">
<use xlink:href="#path1_fill" transform="translate(-9688.58 -12960)" fill="#828282"/>
</g>
</g>
</g>
<g id="Group">
<g id="Group">
<g id="Vector">
<use xlink:href="#path2_fill" transform="translate(-9688.58 -12954.4)" fill="#828282"/>
</g>
</g>
</g>
<g id="Group">
<g id="Group">
<g id="Vector">
<use xlink:href="#path3_fill" transform="translate(-9679.3 -12959.2)" fill="#828282"/>
</g>
</g>
</g>
</g>
</g>
<defs>
<path id="path0_fill" d="M 0 5.48706e-08L 0 8.40589L 4.30319 4.23186L 0 5.48706e-08Z"/>
<path id="path1_fill" d="M 4.17233e-10 7.86479e-08L 6.58481 6.47562L 13.1696 7.86479e-08L 4.17233e-10 7.86479e-08Z"/>
<path id="path2_fill" d="M 8.66365 5.97578e-05L 6.58145 2.04768L 4.49925 3.14592e-07L 4.38094e-09 4.3642L 13.1629 4.3642L 8.66365 5.97578e-05Z"/>
<path id="path3_fill" d="M 0 4.23186L 4.30322 8.40583L 4.30322 5.48706e-08L 0 4.23186Z"/>
</defs>
</svg>
