<svg width="66" height="132" viewBox="0 0 66 132" version="1.1" xmlns="http://www.w3.org/2000/svg" xmlns:xlink="http://www.w3.org/1999/xlink">
<title>&#208;&#161;&#208;&#191;&#209;&#128;&#208;&#176;&#208;&#185;&#209;&#130; &#208;&#184;&#208;&#186;&#208;&#190;&#208;&#189;&#208;&#190;&#208;&#186;3</title>
<desc>Created using Figma</desc>
<g id="Canvas" transform="translate(24781 18801)">
<g id="&#208;&#161;&#208;&#191;&#209;&#128;&#208;&#176;&#208;&#185;&#209;&#130; &#208;&#184;&#208;&#186;&#208;&#190;&#208;&#189;&#208;&#190;&#208;&#186;3">
<g id="ic_shopping_cart">
<g id="Icon 24px">
<g id="Shape">
<use xlink:href="#path0_fill" transform="translate(-24771 -18695)" fill="#BDBDBD"/>
</g>
</g>
</g>
<g id="ic_shopping_cart">
<g id="Icon 24px">
<g id="Shape">
<use xlink:href="#path0_fill" transform="translate(-24738 -18695)" fill="#C62828"/>
</g>
</g>
</g>
<g id="ic_person">
<g id="Icon 24px">
<g id="Shape">
<use xlink:href="#path1_fill" transform="translate(-24771.6 -18725.6)" fill="#BDBDBD"/>
</g>
<g id="Shape">
<use xlink:href="#path2_fill" transform="translate(-24768.5 -18722.5)" fill="#BDBDBD"/>
</g>
</g>
</g>
<g id="ic_person">
<g id="Icon 24px">
<g id="Icon 24px">
<g id="Shape">
<use xlink:href="#path1_fill" transform="translate(-24738.6 -18725.6)" fill="#C62828"/>
</g>
<g id="Shape">
<use xlink:href="#path2_fill" transform="translate(-24735.5 -18722.5)" fill="#C62828"/>
</g>
</g>
</g>
</g>
<g id="ic_compare_arrows2">
<g id="Icon 24px">
<g id="Shape">
<use xlink:href="#path3_fill" transform="translate(-24774 -18759)" fill="#BDBDBD"/>
</g>
</g>
</g>
<g id="ic_compare_arrows2">
<g id="Shape">
<use xlink:href="#path3_fill" transform="translate(-24741 -18759)" fill="#C62828"/>
</g>
</g>
<g id="Group">
<g id="Shape">
<use xlink:href="#path4_fill" transform="translate(-24772.5 -18792)" fill="#BDBDBD"/>
</g>
</g>
<g id="Group 2">
<g id="Shape">
<use xlink:href="#path5_fill" transform="translate(-24739.5 -18792)" fill="#C62828"/>
</g>
</g>
</g>
</g>
<defs>
<path id="path0_fill" fill-rule="evenodd" d="M 3.40078 6.67048L 3.40078 3.64286C 3.40078 2.52571 4.29678 1.61905 5.40078 1.61905C 6.50478 1.61905 7.40078 2.52571 7.40078 3.64286L 7.40078 6.67048C 8.36878 6.01476 9.00078 4.90571 9.00078 3.64286C 9.00078 1.62714 7.39278 0 5.40078 0C 3.40878 0 1.80078 1.62714 1.80078 3.64286C 1.80078 4.90571 2.43278 6.01476 3.40078 6.67048ZM 11.272 10.4177L 7.64 8.58821C 7.504 8.53154 7.36 8.49916 7.208 8.49916L 6.6 8.49916L 6.6 3.64202C 6.6 2.97012 6.064 2.42773 5.4 2.42773C 4.736 2.42773 4.2 2.97012 4.2 3.64202L 4.2 12.3363L 1.456 11.7534C 1.392 11.7454 1.336 11.7292 1.264 11.7292C 1.016 11.7292 0.792 11.8344 0.632 11.9963L 0 12.6439L 3.952 16.643C 4.168 16.8615 4.472 16.9992 4.8 16.9992L 10.232 16.9992C 10.832 16.9992 11.296 16.5539 11.384 15.963L 11.984 11.6968C 11.992 11.6401 12 11.5834 12 11.5349C 12 11.033 11.696 10.5958 11.272 10.4177Z"/>
<path id="path1_fill" fill-rule="evenodd" d="M 9.89583 8.70833L 9.27042 8.70833L 9.04875 8.49458C 9.82458 7.59208 10.2917 6.42042 10.2917 5.14583C 10.2917 2.30375 7.98792 0 5.14583 0C 2.30375 0 0 2.30375 0 5.14583C 0 7.98792 2.30375 10.2917 5.14583 10.2917C 6.42042 10.2917 7.59208 9.82458 8.49458 9.04875L 8.70833 9.27042L 8.70833 9.89583L 12.6667 13.8463L 13.8463 12.6667L 9.89583 8.70833ZM 5.14648 8.70703C 3.17523 8.70703 1.58398 7.11578 1.58398 5.14453C 1.58398 3.17328 3.17523 1.58203 5.14648 1.58203C 7.11773 1.58203 8.70898 3.17328 8.70898 5.14453C 8.70898 7.11578 7.11773 8.70703 5.14648 8.70703Z"/>
<path id="path2_fill" fill-rule="evenodd" d="M 3.95833 2.375L 2.375 2.375L 2.375 3.95833L 1.58333 3.95833L 1.58333 2.375L 0 2.375L 0 1.58333L 1.58333 1.58333L 1.58333 0L 2.375 0L 2.375 1.58333L 3.95833 1.58333L 3.95833 2.375Z"/>
<path id="path3_fill" fill-rule="evenodd" d="M 6.65954 9.00029L 0 9.00029L 0 11.0005L 6.65954 11.0005L 6.65954 14.0008L 10.4501 10.0004L 6.65954 6L 6.65954 9.00029ZM 12.3413 8.00076L 12.3413 5.00048L 19.0008 5.00048L 19.0008 3.00029L 12.3413 3.00029L 12.3413 0L 8.55078 4.00038L 12.3413 8.00076Z"/>
<path id="path4_fill" fill-rule="evenodd" d="M 8 15L 6.84 13.921C 2.72 10.1035 0 7.58583 0 4.49591C 0 1.9782 1.936 0 4.4 0C 5.792 0 7.128 0.662125 8 1.70845C 8.872 0.662125 10.208 0 11.6 0C 14.064 0 16 1.9782 16 4.49591C 16 7.58583 13.28 10.1035 9.16 13.9292L 8 15Z"/>
<path id="path5_fill" fill-rule="evenodd" d="M 8 15L 6.84 13.921C 2.72 10.1035 0 7.58583 0 4.49591C 0 1.9782 1.936 0 4.4 0C 5.792 0 7.128 0.662125 8 1.70845C 8.872 0.662125 10.208 0 11.6 0C 14.064 0 16 1.9782 16 4.49591C 16 7.58583 13.28 10.1035 9.16 13.9292L 8 15Z"/>
</defs>
</svg>
