<svg width="88" height="132" viewBox="0 0 88 132" version="1.1" xmlns="http://www.w3.org/2000/svg" xmlns:xlink="http://www.w3.org/1999/xlink">
<title>Group 2</title>
<desc>Created using Figma</desc>
<g id="Canvas" transform="translate(25203 18315)">
<g id="Group 2">
<g id="Group">
<g id="Path">
<use xlink:href="#path0_fill" transform="translate(-25193 -18250.3)" fill="#BDBDBD"/>
</g>
<g id="Path">
<use xlink:href="#path1_fill" transform="translate(-25182.2 -18258)" fill="#BDBDBD"/>
</g>
</g>
<g id="ic_favorite">
<g id="Shape">
<use xlink:href="#path2_fill" transform="translate(-25191 -18302)" fill="#BDBDBD"/>
</g>
</g>
<g id="ico 1 click">
<g id="ic_touch_app">
<g id="Icon 24px">
<g id="Shape">
<use xlink:href="#path3_fill" transform="translate(-25189 -18215)" fill="#BDBDBD"/>
</g>
</g>
</g>
</g>
<g id="Group">
<g id="Path">
<use xlink:href="#path0_fill" transform="translate(-25149 -18250.3)" fill="#C62828"/>
</g>
<g id="Path">
<use xlink:href="#path1_fill" transform="translate(-25138.2 -18258)" fill="#C62828"/>
</g>
</g>
<g id="ic_favorite">
<g id="Shape">
<use xlink:href="#path2_fill" transform="translate(-25147 -18302)" fill="#C62828"/>
</g>
</g>
<g id="ico 1 click.1">
<g id="ic_touch_app">
<g id="Icon 24px">
<g id="Path">
<use xlink:href="#path4_fill" transform="translate(-25142.7 -18215)" fill="#C62828"/>
</g>
<g id="Path">
<use xlink:href="#path5_fill" transform="translate(-25145 -18211.9)" fill="#C62828"/>
</g>
</g>
</g>
</g>
</g>
</g>
<defs>
<path id="path0_fill" fill-rule="evenodd" d="M 8.41192 3.85729L 0 3.85729L 0 6.42881L 8.41192 6.42881L 8.41192 10.2861L 13.1999 5.14305L 8.41192 0L 8.41192 3.85729Z"/>
<path id="path1_fill" fill-rule="evenodd" d="M 4.78796 10.2861L 4.78796 6.42881L 13.1999 6.42881L 13.1999 3.85728L 4.78796 3.85728L 4.78796 0L 0 5.14305L 4.78796 10.2861Z"/>
<path id="path2_fill" fill-rule="evenodd" d="M 10 18.35L 8.55 17.03C 3.4 12.36 0 9.28 0 5.5C 0 2.42 2.42 0 5.5 0C 7.24 0 8.91 0.81 10 2.09C 11.09 0.81 12.76 0 14.5 0C 17.58 0 20 2.42 20 5.5C 20 9.28 16.6 12.36 11.45 17.04L 10 18.35Z"/>
<path id="path3_fill" fill-rule="evenodd" d="M 4.42708 8.58333L 4.42708 4.6875C 4.42708 3.25 5.59375 2.08333 7.03125 2.08333C 8.46875 2.08333 9.63542 3.25 9.63542 4.6875L 9.63542 8.58333C 10.8958 7.73958 11.7188 6.3125 11.7188 4.6875C 11.7188 2.09375 9.625 0 7.03125 0C 4.4375 0 2.34375 2.09375 2.34375 4.6875C 2.34375 6.3125 3.16667 7.73958 4.42708 8.58333ZM 14.6771 13.4062L 9.94792 11.0521C 9.77083 10.9792 9.58333 10.9375 9.38542 10.9375L 8.59375 10.9375L 8.59375 4.6875C 8.59375 3.82292 7.89583 3.125 7.03125 3.125C 6.16667 3.125 5.46875 3.82292 5.46875 4.6875L 5.46875 15.875L 1.89583 15.125C 1.8125 15.1146 1.73958 15.0938 1.64583 15.0938C 1.32292 15.0938 1.03125 15.2292 0.822917 15.4375L 0 16.2708L 5.14583 21.4167C 5.42708 21.6979 5.82292 21.875 6.25 21.875L 13.3229 21.875C 14.1042 21.875 14.7083 21.3021 14.8229 20.5417L 15.6042 15.0521C 15.6146 14.9792 15.625 14.9062 15.625 14.8438C 15.625 14.1979 15.2292 13.6354 14.6771 13.4062Z"/>
<path id="path4_fill" fill-rule="evenodd" d="M 2.08333 8.58333L 2.08333 4.6875C 2.08333 3.25 3.25 2.08333 4.6875 2.08333C 6.125 2.08333 7.29167 3.25 7.29167 4.6875L 7.29167 8.58333C 8.55208 7.73958 9.375 6.3125 9.375 4.6875C 9.375 2.09375 7.28125 0 4.6875 0C 2.09375 0 0 2.09375 0 4.6875C 0 6.3125 0.822917 7.73958 2.08333 8.58333Z"/>
<path id="path5_fill" fill-rule="evenodd" d="M 14.6771 10.2812L 9.94792 7.92708C 9.77083 7.85417 9.58333 7.8125 9.38542 7.8125L 8.59375 7.8125L 8.59375 1.5625C 8.59375 0.697917 7.89583 0 7.03125 0C 6.16667 0 5.46875 0.697917 5.46875 1.5625L 5.46875 12.75L 1.89583 12C 1.8125 11.9896 1.73958 11.9688 1.64583 11.9688C 1.32292 11.9688 1.03125 12.1042 0.822917 12.3125L 0 13.1458L 5.14583 18.2917C 5.42708 18.5729 5.82292 18.75 6.25 18.75L 13.3229 18.75C 14.1042 18.75 14.7083 18.1771 14.8229 17.4167L 15.6042 11.9271C 15.6146 11.8542 15.625 11.7812 15.625 11.7188C 15.625 11.0729 15.2292 10.5104 14.6771 10.2812Z"/>
</defs>
</svg>
