<svg width="66" height="396" viewBox="0 0 66 396" version="1.1" xmlns="http://www.w3.org/2000/svg" xmlns:xlink="http://www.w3.org/1999/xlink">
<title>Frame</title>
<desc>Created using Figma</desc>
<g id="Canvas" transform="translate(596 353)">
<clipPath id="clip-0" clip-rule="evenodd">
<path d="M -596 -353L -530 -353L -530 43L -596 43L -596 -353Z" fill="#FFFFFF"/>
</clipPath>
<g id="Frame" clip-path="url(#clip-0)">
<path d="M -596 -353L -530 -353L -530 43L -596 43L -596 -353Z" fill="#FFFFFF"/>
<g id="Vk button">
<g id="Rectangle 2">
<use xlink:href="#path0_fill" transform="translate(-596 -353)" fill="#BDBDBD"/>
</g>
<g id="&#239;&#134;&#137;">
<use xlink:href="#path1_fill" transform="translate(-590.5 -346.125)" fill="#FFFFFF"/>
</g>
</g>
<g id="Facebook button">
<g id="Rectangle 2.2">
<use xlink:href="#path0_fill" transform="translate(-596 -320)" fill="#BDBDBD"/>
</g>
<g id="&#239;&#130;&#154;">
<use xlink:href="#path2_fill" transform="translate(-585 -313.125)" fill="#FFFFFF"/>
</g>
</g>
<g id="odnoklasniki button">
<g id="Rectangle 2.5">
<use xlink:href="#path0_fill" transform="translate(-596 -287)" fill="#BDBDBD"/>
</g>
<g id="&#239;&#137;&#163;">
<use xlink:href="#path3_fill" transform="translate(-586.375 -280.125)" fill="#FFFFFF"/>
</g>
</g>
<g id="Instagram button">
<g id="Rectangle 2.4">
<use xlink:href="#path0_fill" transform="translate(-596 -254)" fill="#BDBDBD"/>
</g>
<g id="&#239;&#133;&#173;">
<use xlink:href="#path4_fill" transform="translate(-587.75 -247.125)" fill="#FFFFFF"/>
</g>
</g>
<g id="twitter button">
<g id="Rectangle 2.5">
<use xlink:href="#path0_fill" transform="translate(-596 -221)" fill="#BDBDBD"/>
</g>
<g id="&#239;&#130;&#153;">
<use xlink:href="#path5_fill" transform="translate(-587.75 -214.125)" fill="#FFFFFF"/>
</g>
</g>
<g id="telegram button">
<g id="Rectangle 2.5">
<use xlink:href="#path0_fill" transform="translate(-596 -188)" fill="#BDBDBD"/>
</g>
<g id="&#239;&#135;&#153;">
<use xlink:href="#path6_fill" transform="translate(-589.125 -181.125)" fill="#FFFFFF"/>
</g>
</g>
<g id="Yuotube button">
<g id="Rectangle 2.3">
<use xlink:href="#path0_fill" transform="translate(-596 -155)" fill="#BDBDBD"/>
</g>
<g id="&#239;&#133;&#170;">
<use xlink:href="#path7_fill" transform="translate(-589.125 -148.125)" fill="#FFFFFF"/>
</g>
</g>
<g id="Vk button">
<g id="Rectangle 2">
<use xlink:href="#path0_fill" transform="translate(-563 -353)" fill="#5075A2"/>
</g>
<g id="&#239;&#134;&#137;">
<use xlink:href="#path1_fill" transform="translate(-557.5 -346.125)" fill="#FFFFFF"/>
</g>
</g>
<g id="Facebook button">
<g id="Rectangle 2.2">
<use xlink:href="#path0_fill" transform="translate(-563 -320)" fill="#3F5996"/>
</g>
<g id="&#239;&#130;&#154;">
<use xlink:href="#path2_fill" transform="translate(-552 -313.125)" fill="#FFFFFF"/>
</g>
</g>
<g id="odnoklasniki button">
<g id="Rectangle 2.5">
<use xlink:href="#path0_fill" transform="translate(-563 -287)" fill="#F1812E"/>
</g>
<g id="&#239;&#137;&#163;">
<use xlink:href="#path3_fill" transform="translate(-553.375 -280.125)" fill="#FFFFFF"/>
</g>
</g>
<g id="Instagram button">
<g id="Rectangle 2.4">
<use xlink:href="#path0_fill" transform="translate(-563 -254)" fill="#F01859"/>
</g>
<g id="&#239;&#133;&#173;">
<use xlink:href="#path4_fill" transform="translate(-554.75 -247.125)" fill="#FFFFFF"/>
</g>
</g>
<g id="twitter button">
<g id="Rectangle 2.5">
<use xlink:href="#path0_fill" transform="translate(-563 -221)" fill="#68D7FA"/>
</g>
<g id="&#239;&#130;&#153;">
<use xlink:href="#path5_fill" transform="translate(-554.75 -214.125)" fill="#FFFFFF"/>
</g>
</g>
<g id="telegram button">
<g id="Rectangle 2.5">
<use xlink:href="#path0_fill" transform="translate(-563 -188)" fill="#6AA9DB"/>
</g>
<g id="&#239;&#135;&#153;">
<use xlink:href="#path6_fill" transform="translate(-556.125 -181.125)" fill="#FFFFFF"/>
</g>
</g>
<g id="Yuotube button">
<g id="Rectangle 2.3">
<use xlink:href="#path0_fill" transform="translate(-563 -155)" fill="#CC1010"/>
</g>
<g id="&#239;&#133;&#170;">
<use xlink:href="#path7_fill" transform="translate(-556.125 -148.125)" fill="#FFFFFF"/>
</g>
</g>
<g id="Rectangle">
<use xlink:href="#path0_fill" transform="translate(-596 -122)" fill="#C4C4C4"/>
</g>
<g id="Rectangle">
<use xlink:href="#path0_fill" transform="translate(-596 -89)" fill="#C4C4C4"/>
</g>
<g id="Group">
<g id="Rectangle">
<use xlink:href="#path0_fill" transform="translate(-563 -89)" fill="#E7322B"/>
</g>
</g>
<g id="Rectangle">
<use xlink:href="#path0_fill" transform="translate(-596 -56)" fill="#C4C4C4"/>
</g>
<g id="Group">
<g id="Rectangle">
<use xlink:href="#path0_fill" transform="translate(-563 -56)" fill="#00AFF0"/>
</g>
</g>
<g id="skype">
<g id="Group">
<g id="Vector">
<use xlink:href="#path8_fill" transform="translate(-556 -49)" fill="#FFFFFF"/>
</g>
<g id="Vector">
<use xlink:href="#path9_fill" transform="translate(-550.66 -44.8368)" fill="#00AFF0"/>
</g>
</g>
</g>
<g id="Rectangle">
<use xlink:href="#path0_fill" transform="translate(-596 -23)" fill="#C4C4C4"/>
</g>
<g id="Group">
<g id="Rectangle">
<use xlink:href="#path0_fill" transform="translate(-563 -23)" fill="#7AD06D"/>
</g>
</g>
<g id="Rectangle">
<use xlink:href="#path0_fill" transform="translate(-596 10)" fill="#C4C4C4"/>
</g>
<g id="Group">
<g id="Rectangle">
<use xlink:href="#path0_fill" transform="translate(-563 10)" fill="#7C529D"/>
</g>
</g>
<g id="Group 2">
<g id="Rectangle">
<use xlink:href="#path0_fill" transform="translate(-563 -122)" fill="#DA4835"/>
</g>
<g id="&#239;&#134;&#160;">
<use xlink:href="#path10_fill" transform="translate(-555 -115)" fill="#FFFFFF"/>
</g>
</g>
<g id="yandex">
<g id="XMLID 233">
<g id="XMLID 235">
<use xlink:href="#path11_fill" transform="translate(-551 -81)" fill="#FFFFFF"/>
</g>
</g>
</g>
<g id="viber">
<g id="Group">
<g id="Vector">
<use xlink:href="#path12_fill" transform="translate(-555 18)" fill="#FFFFFF"/>
</g>
</g>
</g>
<g id="whatsapp">
<g id="Group">
<g id="Vector">
<use xlink:href="#path13_fill" transform="translate(-555 -15)" fill="#FFFFFF"/>
</g>
<g id="Vector">
<use xlink:href="#path14_fill" transform="translate(-550.783 -10.6328)" fill="#FFFFFF"/>
</g>
</g>
</g>
<g id="skype">
<g id="Group">
<g id="Vector">
<use xlink:href="#path8_fill" transform="translate(-589 -49)" fill="#FFFFFF"/>
</g>
<g id="Vector">
<use xlink:href="#path9_fill" transform="translate(-583.66 -44.8368)" fill="#C4C4C4"/>
</g>
</g>
</g>
<g id="&#239;&#134;&#160;">
<use xlink:href="#path10_fill" transform="translate(-588 -115)" fill="#FFFFFF"/>
</g>
<g id="yandex">
<g id="XMLID 233">
<g id="XMLID 235">
<use xlink:href="#path11_fill" transform="translate(-584 -81)" fill="#FFFFFF"/>
</g>
</g>
</g>
<g id="viber">
<g id="Group">
<g id="Vector">
<use xlink:href="#path12_fill" transform="translate(-588 18)" fill="#FFFFFF"/>
</g>
</g>
</g>
<g id="whatsapp">
<g id="Group">
<g id="Vector">
<use xlink:href="#path13_fill" transform="translate(-588 -15)" fill="#FFFFFF"/>
</g>
<g id="Vector">
<use xlink:href="#path14_fill" transform="translate(-583.783 -10.6328)" fill="#FFFFFF"/>
</g>
</g>
</g>
</g>
</g>
<defs>
<path id="path0_fill" d="M 0 0L 33 0L 33 33L 0 33L 0 0Z"/>
<path id="path1_fill" d="M 20.3253 5.22768C 20.3253 5.22768 20.1769 4.80357 19.2545 4.9202L 16.2009 4.94141C 15.9676 4.9096 15.798 5.00502 15.798 5.00502C 15.798 5.00502 15.6177 5.10045 15.5329 5.33371C 15.0346 6.61663 14.3984 7.71931 14.3984 7.71931C 13.0413 10.0307 12.49 10.1579 12.2673 10.0095C 11.7478 9.6808 11.8856 8.67355 11.8856 7.95257C 11.8856 5.7048 12.2249 4.77176 11.2176 4.5279C 10.889 4.45368 10.6451 4.40067 9.78627 4.39007C 8.6942 4.37946 7.77176 4.39007 7.25223 4.64453C 6.90234 4.81417 6.63728 5.19587 6.79632 5.21708C 6.99777 5.24888 7.45368 5.34431 7.69754 5.67299C 7.69754 5.67299 7.96261 6.1077 8.00502 7.06194C 8.12165 9.70201 7.58092 10.0307 7.58092 10.0307C 7.16741 10.2533 6.44643 9.88225 5.38616 7.6981C 5.38616 7.6981 4.77121 6.61663 4.29408 5.42913C 4.20926 5.20647 4.03962 5.08984 4.03962 5.08984C 4.03962 5.08984 3.84877 4.94141 3.5731 4.899L 0.667969 4.9202C 0.222656 4.9202 0.0636161 5.12165 0.0636161 5.12165C 0.0636161 5.12165 -0.0954241 5.29129 0.0530134 5.64118C 2.32199 10.9743 4.90904 13.6462 4.90904 13.6462C 4.90904 13.6462 7.27344 16.1166 9.95591 15.947L 11.1752 15.947C 11.5463 15.9152 11.7372 15.7137 11.7372 15.7137C 11.7372 15.7137 11.9068 15.5229 11.8962 15.173C 11.875 13.5402 12.6384 13.2963 12.6384 13.2963C 13.3806 13.0631 14.3348 14.8761 15.3527 15.5759C 15.3527 15.5759 16.1267 16.106 16.7098 15.9894L 19.4241 15.947C 20.8555 15.9364 20.1769 14.7489 20.1769 14.7489C 20.1239 14.6535 19.7846 13.9219 18.1518 12.4057C 16.4554 10.8259 16.678 11.0804 18.7349 8.34487C 19.986 6.68025 20.4844 5.66239 20.3253 5.22768Z"/>
<path id="path2_fill" d="M 9.63281 -0.308035C 9.36161 -0.348215 8.42746 -0.428572 7.34263 -0.428572C 5.07254 -0.428572 3.51562 0.95759 3.51562 3.49888L 3.51562 5.68862L 0.954241 5.68862L 0.954241 8.66183L 3.51562 8.66183L 3.51562 16.2857L 6.58929 16.2857L 6.58929 8.66183L 9.14062 8.66183L 9.53237 5.68862L 6.58929 5.68862L 6.58929 3.79018C 6.58929 2.93638 6.82031 2.34375 8.0558 2.34375L 9.63281 2.34375L 9.63281 -0.308035Z"/>
<path id="path3_fill" d="M 6.78571 9.33092C 9.43638 9.33092 11.5993 7.17857 11.5993 4.5279C 11.5993 1.86663 9.43638 -0.285714 6.78571 -0.285714C 4.13504 -0.285714 1.9721 1.86663 1.9721 4.5279C 1.9721 7.17857 4.13504 9.33092 6.78571 9.33092ZM 6.78571 2.1529C 8.08984 2.1529 9.15011 3.21317 9.15011 4.5279C 9.15011 5.83203 8.08984 6.8923 6.78571 6.8923C 5.48158 6.8923 4.42132 5.83203 4.42132 4.5279C 4.42132 3.21317 5.48158 2.1529 6.78571 2.1529ZM 12.3309 9.91406C 12.0552 9.37333 11.3025 8.91741 10.3058 9.70201C 10.3058 9.70201 8.95926 10.7729 6.78571 10.7729C 4.61217 10.7729 3.26562 9.70201 3.26562 9.70201C 2.26897 8.91741 1.51618 9.37333 1.24051 9.91406C 0.773996 10.8683 1.30413 11.3242 2.51283 12.1088C 3.54129 12.7662 4.96205 13.01 5.87388 13.1055L 5.11049 13.8689C 4.02902 14.9397 3.00056 15.9788 2.27958 16.6998C 1.84487 17.1345 1.84487 17.8343 2.27958 18.2584L 2.40681 18.3962C 2.83092 18.8203 3.53069 18.8203 3.9654 18.3962L 6.79632 15.5547C 7.87779 16.6362 8.91685 17.6752 9.62723 18.3962C 10.0619 18.8203 10.7617 18.8203 11.1964 18.3962L 11.3237 18.2584C 11.7478 17.8343 11.7478 17.1345 11.3237 16.6998L 8.49275 13.8689L 7.71875 13.1055C 8.64118 13.01 10.0407 12.7556 11.0586 12.1088C 12.2673 11.3242 12.7974 10.8683 12.3309 9.91406Z"/>
<path id="path4_fill" d="M 10.8571 9.21429C 10.8571 10.7093 9.63784 11.9286 8.14286 11.9286C 6.64788 11.9286 5.42857 10.7093 5.42857 9.21429C 5.42857 7.71931 6.64788 6.5 8.14286 6.5C 9.63784 6.5 10.8571 7.71931 10.8571 9.21429ZM 12.3203 9.21429C 12.3203 6.9029 10.4542 5.03683 8.14286 5.03683C 5.83147 5.03683 3.9654 6.9029 3.9654 9.21429C 3.9654 11.5257 5.83147 13.3917 8.14286 13.3917C 10.4542 13.3917 12.3203 11.5257 12.3203 9.21429ZM 13.4654 4.86719C 13.4654 4.32645 13.0307 3.89174 12.49 3.89174C 11.9492 3.89174 11.5145 4.32645 11.5145 4.86719C 11.5145 5.40792 11.9492 5.84263 12.49 5.84263C 13.0307 5.84263 13.4654 5.40792 13.4654 4.86719ZM 8.14286 2.5346C 9.33036 2.5346 11.875 2.43917 12.9459 2.86328C 13.317 3.01172 13.5926 3.19196 13.8789 3.47824C 14.1652 3.76451 14.3454 4.04018 14.4939 4.41127C 14.918 5.48214 14.8225 8.02679 14.8225 9.21429C 14.8225 10.4018 14.918 12.9464 14.4939 14.0173C 14.3454 14.3884 14.1652 14.6641 13.8789 14.9503C 13.5926 15.2366 13.317 15.4169 12.9459 15.5653C 11.875 15.9894 9.33036 15.894 8.14286 15.894C 6.95536 15.894 4.41071 15.9894 3.33984 15.5653C 2.96875 15.4169 2.69308 15.2366 2.40681 14.9503C 2.12054 14.6641 1.94029 14.3884 1.79185 14.0173C 1.36775 12.9464 1.46317 10.4018 1.46317 9.21429C 1.46317 8.02679 1.36775 5.48214 1.79185 4.41127C 1.94029 4.04018 2.12054 3.76451 2.40681 3.47824C 2.69308 3.19196 2.96875 3.01172 3.33984 2.86328C 4.41071 2.43917 6.95536 2.5346 8.14286 2.5346ZM 16.2857 9.21429C 16.2857 8.0904 16.2963 6.97712 16.2327 5.85324C 16.1691 4.54911 15.8722 3.39341 14.918 2.43917C 13.9637 1.48493 12.808 1.18806 11.5039 1.12444C 10.38 1.06083 9.26674 1.07143 8.14286 1.07143C 7.01897 1.07143 5.90569 1.06083 4.78181 1.12444C 3.47768 1.18806 2.32199 1.48493 1.36775 2.43917C 0.413504 3.39341 0.116629 4.54911 0.0530134 5.85324C -0.0106027 6.97712 0 8.0904 0 9.21429C 0 10.3382 -0.0106027 11.4515 0.0530134 12.5753C 0.116629 13.8795 0.413504 15.0352 1.36775 15.9894C 2.32199 16.9436 3.47768 17.2405 4.78181 17.3041C 5.90569 17.3677 7.01897 17.3571 8.14286 17.3571C 9.26674 17.3571 10.38 17.3677 11.5039 17.3041C 12.808 17.2405 13.9637 16.9436 14.918 15.9894C 15.8722 15.0352 16.1691 13.8795 16.2327 12.5753C 16.2963 11.4515 16.2857 10.3382 16.2857 9.21429Z"/>
<path id="path5_fill" d="M 17.1763 4.04018C 16.5614 4.30525 15.8934 4.49609 15.2042 4.57031C 15.9146 4.14621 16.4554 3.47824 16.7098 2.68304C 16.0525 3.07534 15.3103 3.36161 14.5363 3.51004C 13.9107 2.84208 13.0201 2.42857 12.034 2.42857C 10.1362 2.42857 8.60938 3.96596 8.60938 5.85324C 8.60938 6.1183 8.64118 6.38337 8.6942 6.63783C 5.85268 6.4894 3.31864 5.13225 1.63281 3.05413C 1.33594 3.56306 1.16629 4.14621 1.16629 4.78237C 1.16629 5.96987 1.77065 7.01953 2.69308 7.63449C 2.13114 7.61328 1.601 7.45424 1.14509 7.19978C 1.14509 7.21038 1.14509 7.23158 1.14509 7.24219C 1.14509 8.90681 2.32199 10.2852 3.89118 10.6032C 3.60491 10.6775 3.29743 10.7199 2.98996 10.7199C 2.7673 10.7199 2.55525 10.6987 2.34319 10.6669C 2.7779 12.024 4.03962 13.01 5.5452 13.0419C 4.3683 13.9643 2.89453 14.505 1.29353 14.505C 1.00725 14.505 0.742188 14.4944 0.466518 14.4626C 1.9827 15.4381 3.78516 16 5.72545 16C 12.0234 16 15.4693 10.7835 15.4693 6.25614C 15.4693 6.1077 15.4693 5.95926 15.4587 5.81083C 16.1267 5.3231 16.7098 4.71875 17.1763 4.04018Z"/>
<path id="path6_fill" d="M 18.7031 -0.169085C 18.4911 -0.317523 18.2048 -0.328125 17.9821 -0.19029L 0.339286 9.98828C 0.116629 10.1155 -0.0212054 10.3594 0 10.6138C 0.0212054 10.8789 0.180246 11.1016 0.424107 11.197L 5.42857 13.2433L 5.42857 18.0357C 5.42857 18.3114 5.59821 18.5658 5.86328 18.6719C 5.9375 18.7037 6.02232 18.7143 6.10714 18.7143C 6.29799 18.7143 6.47824 18.6401 6.60547 18.4916L 9.76507 15.0246L 15.3527 17.3041C 15.4375 17.3359 15.5223 17.3571 15.6071 17.3571C 15.7238 17.3571 15.8404 17.3253 15.9358 17.2723C 16.1161 17.1663 16.2433 16.9967 16.2751 16.7952L 18.9894 0.509487C 19.0318 0.244419 18.9258 -0.0100442 18.7031 -0.169085ZM 15.077 15.7243L 9.86049 13.5932L 14.9286 5.14286L 5.77846 11.918L 2.21596 10.4654L 17.4202 1.69699L 15.077 15.7243Z"/>
<path id="path7_fill" d="M 7.5385 11.6741L 7.5385 6.34096L 12.6702 9.02344L 7.5385 11.6741ZM 9.5 2.5346C 5.50279 2.5346 2.85212 2.72545 2.85212 2.72545C 2.48103 2.76786 1.66462 2.76786 0.943638 3.53125C 0.943638 3.53125 0.360491 4.10379 0.190848 5.41853C -0.0106027 6.95592 0 8.4933 0 8.4933L 0 9.93527C 0 9.93527 -0.0106027 11.4727 0.190848 13.01C 0.360491 14.3142 0.943638 14.8973 0.943638 14.8973C 1.66462 15.6501 2.61886 15.6289 3.04297 15.7031C 3.04297 15.7031 4.55915 15.8516 9.5 15.894C 13.4972 15.894 16.1479 15.6925 16.1479 15.6925C 16.519 15.6501 17.3354 15.6501 18.0564 14.8973C 18.0564 14.8973 18.6395 14.3142 18.8092 13.01C 19.0106 11.4727 19 9.93527 19 9.93527L 19 8.4933C 19 8.4933 19.0106 6.95592 18.8092 5.41853C 18.6395 4.10379 18.0564 3.53125 18.0564 3.53125C 17.3354 2.76786 16.519 2.76786 16.1479 2.72545C 16.1479 2.72545 13.4972 2.5346 9.5 2.5346Z"/>
<path id="path8_fill" d="M 18.4543 11.517C 18.5908 10.8978 18.6632 10.2578 18.6632 9.59945C 18.6632 4.66555 14.6065 0.664887 9.60087 0.664887C 9.07301 0.664887 8.55519 0.710012 8.05165 0.795503C 7.24183 0.292078 6.28341 0 5.25619 0C 2.35259 0 9.91361e-11 2.31999 9.91361e-11 5.18261C 9.91361e-11 6.1384 0.264225 7.03361 0.722037 7.80361C 0.601502 8.3836 0.53856 8.98438 0.53856 9.59945C 0.53856 14.5351 4.59534 18.3868 9.60035 18.3868C 10.1674 18.3868 10.722 18.3351 11.2594 18.2372C 11.9998 18.629 12.8454 19 13.7444 19C 16.6474 19 19 16.6806 19 13.818C 19 12.9922 18.8034 12.2103 18.4543 11.517Z"/>
<path id="path9_fill" d="M 8.39369 9.08304C 8.04396 9.57995 7.53207 9.97056 6.85817 10.2514C 6.18421 10.5345 5.38618 10.6746 4.46286 10.6746C 3.35548 10.6746 2.44221 10.4823 1.72193 10.097C 1.21246 9.82038 0.797436 9.44992 0.477966 8.98803C 0.15967 8.52614 2.03031e-07 8.07619 2.03031e-07 7.63863C 2.03031e-07 7.38574 0.0956192 7.16846 0.286793 6.98855C 0.477966 6.80628 0.722036 6.71668 1.01718 6.71668C 1.25707 6.71668 1.46071 6.78613 1.62579 6.92803C 1.79205 7.06876 1.93398 7.2771 2.05034 7.55431C 2.19344 7.88382 2.34724 8.15868 2.51408 8.3789C 2.67917 8.59912 2.91313 8.78197 3.21355 8.92504C 3.51522 9.06694 3.91126 9.13932 4.40051 9.13932C 5.07389 9.13932 5.62132 8.99566 6.04293 8.70652C 6.4633 8.41861 6.6747 8.05709 6.6747 7.62546C 6.6747 7.28349 6.56068 7.00387 6.33383 6.79194C 6.10639 6.57824 5.81308 6.41495 5.45324 6.30279C 5.09398 6.18939 4.61301 6.06947 4.00975 5.94303C 3.20396 5.77028 2.52882 5.56604 1.98616 5.33455C 1.44283 5.10122 1.01059 4.78482 0.692294 4.3841C 0.372824 3.98162 0.213676 3.48296 0.213676 2.88752C 0.213676 2.31882 0.381694 1.81481 0.718971 1.37372C 1.05566 0.932054 1.54198 0.59309 2.18085 0.355593C 2.81855 0.118161 3.56916 -9.75133e-08 4.43071 -9.75133e-08C 5.11948 -9.75133e-08 5.71563 0.0789698 6.21858 0.235084C 6.72153 0.393024 7.13779 0.601958 7.46907 0.862605C 7.801 1.12325 8.04383 1.39629 8.19645 1.68302C 8.34967 1.96799 8.42624 2.24937 8.42624 2.52006C 8.42624 2.76877 8.33121 2.9944 8.14003 3.19329C 7.94886 3.39277 7.71014 3.49307 7.42452 3.49307C 7.16382 3.49307 6.96612 3.43249 6.83071 3.31322C 6.69531 3.19329 6.54868 2.9974 6.3913 2.72489C 6.18642 2.33545 5.94242 2.0315 5.65621 1.81363C 5.37001 1.59518 4.91161 1.48595 4.2786 1.48595C 3.69256 1.48595 3.2187 1.60353 2.85886 1.84155C 2.49902 2.0778 2.31854 2.36395 2.31854 2.69698C 2.31854 2.90239 2.38089 3.08165 2.5026 3.23183C 2.62431 3.38319 2.79298 3.51087 3.00849 3.61834C 3.22164 3.72639 3.43897 3.81071 3.65806 3.87298C 3.87715 3.93415 4.23999 4.02258 4.74587 4.14015C 5.37764 4.27611 5.95064 4.42688 6.46369 4.59076C 6.97616 4.75522 7.41317 4.95528 7.77301 5.18854C 8.13227 5.42362 8.41372 5.72164 8.615 6.0814C 8.81628 6.44 8.91784 6.87984 8.91784 7.40113C 8.91803 8.02455 8.74232 8.58555 8.39369 9.08304Z"/>
<path id="path10_fill" d="M 8.14286 8.04799L 8.14286 10.8471L 12.7656 10.8471C 12.5748 12.0452 11.3661 14.3566 8.14286 14.3566C 5.36496 14.3566 3.09598 12.0558 3.09598 9.21429C 3.09598 6.37277 5.36496 4.07199 8.14286 4.07199C 9.72266 4.07199 10.7829 4.75056 11.3873 5.33371L 13.6032 3.20257C 12.1825 1.87723 10.3376 1.07143 8.14286 1.07143C 3.63672 1.07143 0 4.70815 0 9.21429C 0 13.7204 3.63672 17.3571 8.14286 17.3571C 12.8398 17.3571 15.957 14.0491 15.957 9.40513C 15.957 8.8644 15.904 8.4615 15.8298 8.04799L 8.14286 8.04799Z"/>
<path id="path11_fill" d="M 7.29451 0L 5.065 0C 2.80622 0 0.527092 1.7007 0.527092 5.5002C 0.527092 7.46825 1.34517 9.00105 2.84472 9.87275L 0.100031 14.9381C -0.0300636 15.1776 -0.0334474 15.4491 0.0909589 15.6643C 0.212423 15.8745 0.434461 16 0.684892 16L 2.07317 16C 2.38858 16 2.63454 15.8446 2.75243 15.5723L 5.32583 10.44L 5.51364 10.44L 5.51364 15.3604C 5.51364 15.7071 5.8006 16 6.14023 16L 7.35316 16C 7.73402 16 8 15.7288 8 15.3405L 8 0.7001C 8.00005 0.2879 7.70995 0 7.29451 0ZM 5.51369 8.1602L 5.1824 8.1602C 3.89778 8.1602 3.13085 7.091 3.13085 5.3001C 3.13085 3.07325 4.09967 2.27985 5.00636 2.27985L 5.51369 2.27985L 5.51369 8.1602Z"/>
<path id="path12_fill" d="M 13.1805 0.426289C 10.0749 -0.142097 6.9253 -0.142097 3.81895 0.426289C 2.46031 0.717414 0.751027 2.29318 0.416856 3.56066C -0.138952 6.01311 -0.138952 8.49922 0.416856 10.9517C 0.751027 12.2191 2.46031 13.7949 3.81895 14.086C 3.81929 14.0861 3.81963 14.0862 3.81998 14.0862C 3.8805 14.0977 3.92462 14.1481 3.92462 14.2074L 3.92462 17.8001C 3.92462 17.9797 4.15243 18.0681 4.28212 17.9381L 6.0559 16.1867C 6.0559 16.1867 7.46937 14.7907 7.72353 14.5398C 7.74837 14.5152 7.78268 14.5019 7.81823 14.5029C 9.60909 14.5506 11.4019 14.4114 13.1805 14.0861C 14.5392 13.795 16.2491 12.2192 16.5826 10.9517C 17.1391 8.49929 17.1391 6.01317 16.5826 3.56073C 16.2491 2.29318 14.5399 0.717414 13.1805 0.426289ZM 13.2279 11.1346C 12.9562 11.6896 12.5608 12.1514 11.9904 12.4462C 11.8295 12.5293 11.6372 12.5562 11.4555 12.61C 11.2467 12.549 11.0476 12.508 10.8627 12.4342C 8.9472 11.6696 7.18426 10.6832 5.78781 9.17118C 4.99369 8.31134 4.37208 7.3406 3.84674 6.31328C 3.59759 5.82609 3.38761 5.31982 3.17359 4.81686C 2.97837 4.35819 3.26589 3.88434 3.56856 3.53875C 3.85257 3.21442 4.21803 2.9662 4.61382 2.78328C 4.92274 2.64049 5.22748 2.72281 5.45309 2.97472C 5.94083 3.51934 6.38884 4.09182 6.75162 4.72312C 6.9747 5.11141 6.9135 5.58606 6.5092 5.85032C 6.41094 5.91455 6.32139 5.98994 6.22985 6.06249C 6.14957 6.12606 6.07402 6.19029 6.01899 6.27637C 5.91839 6.43382 5.91359 6.61965 5.97837 6.79089C 6.47695 8.10907 7.31731 9.13408 8.6964 9.68616C 8.91715 9.77449 9.13872 9.87734 9.39295 9.84882C 9.81872 9.80096 9.95658 9.35167 10.2549 9.11692C 10.5466 8.88752 10.9192 8.88448 11.2334 9.07573C 11.5476 9.26704 11.8522 9.47241 12.1549 9.67996C 12.4521 9.88368 12.748 10.083 13.0221 10.3152C 13.2855 10.5385 13.3763 10.8315 13.2279 11.1346ZM 10.7546 6.83908C 10.6357 6.84113 10.6824 6.83889 10.7276 6.83763C 10.536 6.83116 10.4318 6.72263 10.4112 6.54618C 10.3961 6.41725 10.3843 6.28661 10.3523 6.16118C 10.2893 5.91415 10.1528 5.68521 9.93688 5.53384C 9.83492 5.46235 9.71936 5.4102 9.59832 5.37666C 9.44455 5.33395 9.28487 5.3457 9.13144 5.30952C 8.96484 5.27031 8.87268 5.14046 8.89883 4.99008C 8.92264 4.85323 9.06104 4.74642 9.21646 4.75725C 10.1879 4.82471 10.8822 5.30787 10.9813 6.40814C 10.9883 6.48577 10.9965 6.56776 10.9786 6.64203C 10.9495 6.76277 10.8598 6.82562 10.7692 6.83704C 10.7766 6.83717 10.7751 6.83776 10.7546 6.83908ZM 10.1506 4.32267C 9.85248 4.18226 9.53011 4.09499 9.20335 4.04297C 9.06056 4.02026 8.91626 4.00646 8.77277 3.98725C 8.5989 3.96401 8.50612 3.8574 8.51429 3.69256C 8.52198 3.53809 8.63931 3.42698 8.81429 3.43649C 9.38931 3.46791 9.94471 3.58747 10.4559 3.84789C 11.4955 4.37753 12.0893 5.21354 12.2626 6.32985C 12.2705 6.38041 12.2831 6.43052 12.2871 6.48128C 12.2969 6.60658 12.303 6.73207 12.3131 6.89731C 12.3089 6.92741 12.3068 6.99818 12.2885 7.06485C 12.222 7.30686 11.8406 7.33716 11.7528 7.09291C 11.7268 7.02043 11.7229 6.93797 11.7227 6.85994C 11.7218 6.34939 11.6065 5.83936 11.3389 5.39515C 11.0638 4.93872 10.6434 4.55491 10.1506 4.32267ZM 13.3627 7.77266C 13.1619 7.77497 13.0715 7.6133 13.0585 7.44002C 13.0327 7.097 13.0148 6.75247 12.9656 6.4123C 12.7062 4.61663 11.2179 3.13104 9.36015 2.81226C 9.0806 2.76426 8.79439 2.75166 8.51127 2.72307C 8.33225 2.70498 8.09778 2.69455 8.05812 2.48047C 8.02484 2.30097 8.18232 2.15805 8.35997 2.14888C 8.40828 2.14637 8.45686 2.14848 8.50537 2.14868C 10.9115 2.21357 8.65221 2.1537 8.51182 2.14901C 11.0145 2.21918 13.0692 3.81806 13.5099 6.19907C 13.585 6.60513 13.6118 7.02029 13.6452 7.43242C 13.6592 7.60571 13.5572 7.77042 13.3627 7.77266Z"/>
<path id="path13_fill" d="M 8.08443 0.00983129C 3.55817 0.223604 -0.0136915 3.96264 3.94549e-05 8.4574C 0.00422023 9.8264 0.337412 11.1185 0.92518 12.2603L 0.0227468 16.6054C -0.0260699 16.8404 0.187642 17.0462 0.423036 16.9909L 4.71542 15.9822C 5.81821 16.5271 7.05686 16.8418 8.36778 16.8616C 12.9941 16.9317 16.8516 13.288 16.9958 8.70085C 17.1503 3.78371 13.059 -0.225165 8.08443 0.00983129ZM 13.2062 13.0995C 11.9491 14.3464 10.2777 15.0331 8.50001 15.0331C 7.45908 15.0331 6.4625 14.8014 5.53785 14.3445L 4.94008 14.0492L 2.3084 14.6676L 2.86236 12.0003L 2.56786 11.4282C 2.08785 10.4958 1.84446 9.48744 1.84446 8.4313C 1.84446 6.6679 2.53675 5.01008 3.79381 3.76314C 5.03964 2.52738 6.73826 1.8295 8.50013 1.8295C 10.2779 1.82954 11.9492 2.51624 13.2062 3.7631C 14.4633 5.01 15.1556 6.66782 15.1556 8.43118C 15.1556 10.1788 14.452 11.8637 13.2062 13.0995Z"/>
<path id="path14_fill" d="M 8.40794 5.89254L 6.76149 5.4236C 6.54503 5.36197 6.31193 5.42287 6.15421 5.58228L 5.75159 5.98918C 5.58181 6.16075 5.3242 6.21588 5.09951 6.1257C 4.32065 5.81305 2.68228 4.36811 2.26387 3.64536C 2.14316 3.43687 2.16313 3.17622 2.31134 2.98599L 2.66285 2.5349C 2.80057 2.35817 2.82963 2.12081 2.73856 1.91651L 2.04586 0.36249C 1.87994 -0.00972174 1.40042 -0.118072 1.08715 0.144733C 0.627633 0.53024 0.0824105 1.11606 0.0161329 1.76507C -0.100724 2.90931 0.394001 4.35173 2.26482 6.0837C 4.42611 8.08462 6.15687 8.34897 7.28376 8.0782C 7.92293 7.92464 8.43372 7.30902 8.75609 6.80495C 8.97587 6.46128 8.80232 6.00487 8.40794 5.89254Z"/>
</defs>
</svg>
