<svg width="272" height="94" viewBox="0 0 272 94" version="1.1" xmlns="http://www.w3.org/2000/svg" xmlns:xlink="http://www.w3.org/1999/xlink">
<title>404</title>
<desc>Created using Figma</desc>
<g id="Canvas" transform="translate(14669 26680)">
<g id="404">
<use xlink:href="#path0_stroke" transform="translate(-14668 -26679)" fill="#E0E0E0"/>
</g>
</g>
<defs>
<path id="path0_stroke" d="M 41.2441 76.4111L 42.2441 76.4111L 42.2441 75.4111L 41.2441 75.4111L 41.2441 76.4111ZM 1.39167 50.7278L 2.18102 51.3419L 2.18887 51.3315L 1.39167 50.7278ZM 37.1956 3.45L 36.4206 2.81806L 36.4092 2.83197L 36.3984 2.84628L 37.1956 3.45ZM 70.5957 2.3L 69.8851 3.00359L 70.5957 2.3ZM 71.6078 50.4722L 70.6078 50.4722L 70.6078 51.4722L 71.6078 51.4722L 71.6078 50.4722ZM 71.6078 76.4111L 71.6078 75.4111L 70.6078 75.4111L 70.6078 76.4111L 71.6078 76.4111ZM 42.1297 51.8778L 42.1297 52.8778L 43.1297 52.8778L 43.1297 51.8778L 42.1297 51.8778ZM 42.1297 33.4778L 43.1297 33.4778L 43.1297 30.3843L 41.3189 32.8924L 42.1297 33.4778ZM 28.8455 51.8778L 28.0348 51.2924L 26.8902 52.8778L 28.8455 52.8778L 28.8455 51.8778ZM 135.037 92L 135.03 93.0001L 135.044 93L 135.037 92ZM 95.3107 59.2889L 94.3133 59.3611L 94.3137 59.3661L 95.3107 59.2889ZM 95.3107 32.2L 96.3082 32.2705L 96.3085 32.2668L 95.3107 32.2ZM 100.751 15.5889L 99.923 15.028L 99.9208 15.0312L 100.751 15.5889ZM 114.415 4.21667L 114.839 5.12227L 114.844 5.11955L 114.415 4.21667ZM 155.532 4.21667L 155.097 5.11712L 155.105 5.12091L 155.113 5.12457L 155.532 4.21667ZM 169.196 15.5889L 168.361 16.1398L 168.367 16.1482L 168.373 16.1566L 169.196 15.5889ZM 174.762 32.2L 173.765 32.2668L 173.765 32.2705L 174.762 32.2ZM 174.762 59.2889L 175.759 59.3661L 175.76 59.3611L 174.762 59.2889ZM 141.868 58.65L 140.871 58.5819L 140.87 58.5892L 141.868 58.65ZM 141.868 32.9667L 140.87 33.0284L 140.871 33.0398L 141.868 32.9667ZM 135.037 24.6611L 135.057 23.6613L 135.037 23.6609L 135.016 23.6613L 135.037 24.6611ZM 128.205 32.9667L 127.207 32.9049L 127.206 32.9175L 127.205 32.93L 128.205 32.9667ZM 128.205 58.65L 127.205 58.6841L 127.206 58.6975L 127.207 58.7108L 128.205 58.65ZM 225.087 76.4111L 226.087 76.4111L 226.087 75.4111L 225.087 75.4111L 225.087 76.4111ZM 185.235 50.7278L 186.024 51.3419L 186.032 51.3315L 185.235 50.7278ZM 221.038 3.45L 220.263 2.81806L 220.252 2.83197L 220.241 2.84628L 221.038 3.45ZM 255.451 50.4722L 254.451 50.4722L 254.451 51.4722L 255.451 51.4722L 255.451 50.4722ZM 255.451 76.4111L 255.451 75.4111L 254.451 75.4111L 254.451 76.4111L 255.451 76.4111ZM 225.973 51.8778L 225.973 52.8778L 226.973 52.8778L 226.973 51.8778L 225.973 51.8778ZM 225.973 33.4778L 226.973 33.4778L 226.973 30.3843L 225.162 32.8924L 225.973 33.4778ZM 212.688 51.8778L 211.878 51.2924L 210.733 52.8778L 212.688 52.8778L 212.688 51.8778ZM 44.66 89.7222C 44.009 89.7222 43.4608 89.4953 42.9668 88.9964L 41.5456 90.4036C 42.4011 91.2676 43.4554 91.7222 44.66 91.7222L 44.66 89.7222ZM 42.9668 88.9964C 42.4726 88.4973 42.2441 87.9389 42.2441 87.2722L 40.2441 87.2722C 40.2441 88.4796 40.6903 89.5398 41.5456 90.4036L 42.9668 88.9964ZM 42.2441 87.2722L 42.2441 76.4111L 40.2441 76.4111L 40.2441 87.2722L 42.2441 87.2722ZM 41.2441 75.4111L 3.41592 75.4111L 3.41592 77.4111L 41.2441 77.4111L 41.2441 75.4111ZM 3.41592 75.4111C 2.76497 75.4111 2.21674 75.1842 1.72273 74.6853L 0.301517 76.0925C 1.157 76.9565 2.21131 77.4111 3.41592 77.4111L 3.41592 75.4111ZM 1.72273 74.6853C 1.22851 74.1861 1 73.6278 1 72.9611L -1 72.9611C -1 74.1685 -0.553763 75.2287 0.301517 76.0925L 1.72273 74.6853ZM 1 72.9611L 1 54.6889L -1 54.6889L -1 72.9611L 1 72.9611ZM 1 54.6889C 0.985765 53.4089 1.34171 52.3994 2.18096 51.3418L 0.602386 50.1137C -0.413928 51.4414 -0.985765 53.0726 -1 54.6889L 1 54.6889ZM 2.18887 51.3315L 37.9928 4.05372L 36.3984 2.84628L 0.594477 50.1241L 2.18887 51.3315ZM 37.9706 4.08194C 38.9533 2.87679 40.224 2.27778 41.8766 2.27778L 41.8766 0.277777C 39.6495 0.277777 37.7995 1.12692 36.4206 2.81806L 37.9706 4.08194ZM 41.8766 2.27778L 68.1919 2.27778L 68.1919 0.277777L 41.8766 0.277777L 41.8766 2.27778ZM 68.1919 2.27778C 68.8428 2.27778 69.3911 2.50465 69.8851 3.00359L 71.3063 1.59641C 70.4508 0.732387 69.3965 0.277777 68.1919 0.277777L 68.1919 2.27778ZM 69.8851 3.00359C 70.3793 3.50274 70.6078 4.06107 70.6078 4.72778L 72.6078 4.72778C 72.6078 3.52041 72.1616 2.46022 71.3063 1.59641L 69.8851 3.00359ZM 70.6078 4.72778L 70.6078 50.4722L 72.6078 50.4722L 72.6078 4.72778L 70.6078 4.72778ZM 71.6078 51.4722L 82.6147 51.4722L 82.6147 49.4722L 71.6078 49.4722L 71.6078 51.4722ZM 82.6147 51.4722C 83.3763 51.4722 83.9587 51.7176 84.4344 52.198L 85.8556 50.7909C 84.9817 49.9083 83.8773 49.4722 82.6147 49.4722L 82.6147 51.4722ZM 84.4344 52.198C 84.9286 52.6972 85.1571 53.2555 85.1571 53.9222L 87.1571 53.9222C 87.1571 52.7149 86.7109 51.6547 85.8556 50.7909L 84.4344 52.198ZM 85.1571 53.9222L 85.1571 72.9611L 87.1571 72.9611L 87.1571 53.9222L 85.1571 53.9222ZM 85.1571 72.9611C 85.1571 73.6278 84.9286 74.1861 84.4344 74.6853L 85.8556 76.0925C 86.7109 75.2287 87.1571 74.1685 87.1571 72.9611L 85.1571 72.9611ZM 84.4344 74.6853C 83.9404 75.1842 83.3921 75.4111 82.7412 75.4111L 82.7412 77.4111C 83.9458 77.4111 85.0001 76.9565 85.8556 76.0925L 84.4344 74.6853ZM 82.7412 75.4111L 71.6078 75.4111L 71.6078 77.4111L 82.7412 77.4111L 82.7412 75.4111ZM 70.6078 76.4111L 70.6078 87.2722L 72.6078 87.2722L 72.6078 76.4111L 70.6078 76.4111ZM 70.6078 87.2722C 70.6078 87.9389 70.3793 88.4973 69.8851 88.9964L 71.3063 90.4036C 72.1616 89.5398 72.6078 88.4796 72.6078 87.2722L 70.6078 87.2722ZM 69.8851 88.9964C 69.3911 89.4953 68.8428 89.7222 68.1919 89.7222L 68.1919 91.7222C 69.3965 91.7222 70.4508 91.2676 71.3063 90.4036L 69.8851 88.9964ZM 68.1919 89.7222L 44.66 89.7222L 44.66 91.7222L 68.1919 91.7222L 68.1919 89.7222ZM 43.1297 51.8778L 43.1297 33.4778L 41.1297 33.4778L 41.1297 51.8778L 43.1297 51.8778ZM 41.3189 32.8924L 28.0348 51.2924L 29.6563 52.4631L 42.9405 34.0631L 41.3189 32.8924ZM 28.8455 52.8778L 42.1297 52.8778L 42.1297 50.8778L 28.8455 50.8778L 28.8455 52.8778ZM 135.044 91C 122.968 90.9159 113.743 87.932 107.233 82.1784L 105.908 83.6771C 112.893 89.8495 122.645 92.9137 135.03 93L 135.044 91ZM 107.233 82.1784C 100.699 76.404 97.0487 68.7748 96.3077 59.2116L 94.3137 59.3661C 95.0908 69.3956 98.9476 77.5257 105.908 83.6771L 107.233 82.1784ZM 96.3081 59.2166C 96.0564 55.746 95.931 51.3099 95.9311 45.8722L 93.9311 45.8722C 93.9312 51.3382 94.0589 55.8466 94.3133 59.3611L 96.3081 59.2166ZM 95.9311 45.8722C 95.931 40.3491 96.0565 35.8269 96.3082 32.2705L 94.3132 32.1295C 94.0589 35.7286 93.9312 40.3213 93.9311 45.8722L 95.9311 45.8722ZM 96.3085 32.2668C 96.7141 26.0868 98.4445 20.7979 101.581 16.1466L 99.9208 15.0312C 96.6471 19.9207 94.7507 25.7058 94.3129 32.1332L 96.3085 32.2668ZM 101.579 16.1498C 104.781 11.4047 109.131 7.7866 114.839 5.12225L 113.99 3.31108C 108.058 6.09859 103.299 10.062 99.923 15.028L 101.579 16.1498ZM 114.844 5.11955C 120.636 2.35383 127.293 0.994919 135.037 1L 135.037 -1C 127.092 -0.994919 120.001 0.457279 113.985 3.31379L 114.844 5.11955ZM 135.037 1C 142.779 0.994858 149.392 2.35275 155.097 5.11712L 155.967 3.31621C 150.033 0.458367 142.982 -0.994858 135.037 -1L 135.037 1ZM 155.113 5.12457C 160.902 7.78807 165.246 11.4002 168.361 16.1398L 170.03 15.038C 166.736 10.0664 161.97 6.09711 155.951 3.30876L 155.113 5.12457ZM 168.373 16.1566C 171.591 20.8064 173.36 26.0901 173.765 32.2668L 175.76 32.1332C 175.322 25.7025 173.38 19.9122 170.019 15.0212L 168.373 16.1566ZM 173.765 32.2705C 174.017 35.8269 174.142 40.3491 174.142 45.8722L 176.142 45.8722C 176.142 40.3213 176.014 35.7286 175.76 32.1295L 173.765 32.2705ZM 174.142 45.8722C 174.142 51.3099 174.017 55.746 173.765 59.2166L 175.76 59.3611C 176.014 55.8466 176.142 51.3382 176.142 45.8722L 174.142 45.8722ZM 173.765 59.2116C 173.024 68.7748 169.375 76.404 162.84 82.1784L 164.165 83.6771C 171.126 77.5257 174.982 69.3956 175.759 59.3661L 173.765 59.2116ZM 162.84 82.1784C 156.33 87.932 147.105 90.9159 135.03 91L 135.044 93C 147.428 92.9137 157.18 89.8495 164.165 83.6771L 162.84 82.1784ZM 135.037 67.9555C 137.385 67.9555 139.317 67.1714 140.68 65.5144C 142.008 63.9001 142.692 61.5821 142.867 58.7108L 140.87 58.5892C 140.708 61.255 140.084 63.0897 139.135 64.2439C 138.221 65.3554 136.905 65.9555 135.037 65.9555L 135.037 67.9555ZM 142.866 58.7181C 143.036 56.2235 143.121 51.8876 143.121 45.7444L 141.121 45.7444C 141.121 51.868 141.038 56.1357 140.871 58.5819L 142.866 58.7181ZM 143.121 45.7444C 143.121 39.516 143.036 35.2202 142.866 32.8935L 140.871 33.0398C 141.038 35.3132 141.121 39.5358 141.121 45.7444L 143.121 45.7444ZM 142.866 32.9049C 142.691 30.0724 142.006 27.7781 140.68 26.1661C 139.322 24.5158 137.4 23.7087 135.057 23.6613L 135.016 25.6609C 136.89 25.6988 138.215 26.3184 139.135 27.4366C 140.086 28.5932 140.708 30.4091 140.87 33.0284L 142.866 32.9049ZM 135.016 23.6613C 132.673 23.7087 130.751 24.5158 129.393 26.1661C 128.067 27.7781 127.382 30.0724 127.207 32.9049L 129.203 33.0284C 129.365 30.4091 129.987 28.5932 130.938 27.4367C 131.858 26.3184 133.183 25.6988 135.057 25.6609L 135.016 23.6613ZM 127.205 32.93C 127.036 37.5384 126.952 41.816 126.952 45.7444L 128.952 45.7444C 128.952 41.8358 129.036 37.5949 129.204 33.0033L 127.205 32.93ZM 126.952 45.7444C 126.952 49.4172 127.036 53.7361 127.205 58.6841L 129.204 58.6159C 129.036 53.6824 128.952 49.3976 128.952 45.7444L 126.952 45.7444ZM 127.207 58.7108C 127.382 61.5821 128.066 63.9001 129.393 65.5144C 130.756 67.1714 132.688 67.9555 135.037 67.9555L 135.037 65.9555C 133.168 65.9555 131.852 65.3554 130.938 64.2439C 129.989 63.0897 129.365 61.255 129.203 58.5892L 127.207 58.7108ZM 228.503 89.7222C 227.852 89.7222 227.304 89.4953 226.81 88.9964L 225.389 90.4036C 226.244 91.2676 227.298 91.7222 228.503 91.7222L 228.503 89.7222ZM 226.81 88.9964C 226.316 88.4973 226.087 87.9389 226.087 87.2722L 224.087 87.2722C 224.087 88.4796 224.533 89.5398 225.389 90.4036L 226.81 88.9964ZM 226.087 87.2722L 226.087 76.4111L 224.087 76.4111L 224.087 87.2722L 226.087 87.2722ZM 225.087 75.4111L 187.259 75.4111L 187.259 77.4111L 225.087 77.4111L 225.087 75.4111ZM 187.259 75.4111C 186.608 75.4111 186.06 75.1842 185.566 74.6853L 184.144 76.0925C 185 76.9565 186.054 77.4111 187.259 77.4111L 187.259 75.4111ZM 185.566 74.6853C 185.071 74.1861 184.843 73.6278 184.843 72.9611L 182.843 72.9611C 182.843 74.1685 183.289 75.2287 184.144 76.0925L 185.566 74.6853ZM 184.843 72.9611L 184.843 54.6889L 182.843 54.6889L 182.843 72.9611L 184.843 72.9611ZM 184.843 54.6889C 184.829 53.4089 185.185 52.3994 186.024 51.3418L 184.445 50.1137C 183.429 51.4414 182.857 53.0726 182.843 54.6889L 184.843 54.6889ZM 186.032 51.3315L 221.836 4.05372L 220.241 2.84628L 184.437 50.1241L 186.032 51.3315ZM 221.813 4.08194C 222.796 2.87679 224.067 2.27778 225.72 2.27778L 225.72 0.277777C 223.492 0.277777 221.642 1.12692 220.263 2.81806L 221.813 4.08194ZM 225.72 2.27778L 252.035 2.27778L 252.035 0.277777L 225.72 0.277777L 225.72 2.27778ZM 252.035 2.27778C 252.686 2.27778 253.234 2.50465 253.728 3.00359L 255.149 1.59641C 254.294 0.732384 253.239 0.277777 252.035 0.277777L 252.035 2.27778ZM 253.728 3.00359C 254.222 3.50274 254.451 4.06107 254.451 4.72778L 256.451 4.72778C 256.451 3.52041 256.004 2.46022 255.149 1.59641L 253.728 3.00359ZM 254.451 4.72778L 254.451 50.4722L 256.451 50.4722L 256.451 4.72778L 254.451 4.72778ZM 255.451 51.4722L 266.458 51.4722L 266.458 49.4722L 255.451 49.4722L 255.451 51.4722ZM 266.458 51.4722C 267.219 51.4722 267.802 51.7176 268.277 52.198L 269.698 50.7909C 268.825 49.9083 267.72 49.4722 266.458 49.4722L 266.458 51.4722ZM 268.277 52.198C 268.771 52.6972 269 53.2555 269 53.9222L 271 53.9222C 271 52.7149 270.554 51.6547 269.698 50.7909L 268.277 52.198ZM 269 53.9222L 269 72.9611L 271 72.9611L 271 53.9222L 269 53.9222ZM 269 72.9611C 269 73.6278 268.771 74.1861 268.277 74.6853L 269.698 76.0925C 270.554 75.2287 271 74.1685 271 72.9611L 269 72.9611ZM 268.277 74.6853C 267.783 75.1842 267.235 75.4111 266.584 75.4111L 266.584 77.4111C 267.789 77.4111 268.843 76.9565 269.698 76.0925L 268.277 74.6853ZM 266.584 75.4111L 255.451 75.4111L 255.451 77.4111L 266.584 77.4111L 266.584 75.4111ZM 254.451 76.4111L 254.451 87.2722L 256.451 87.2722L 256.451 76.4111L 254.451 76.4111ZM 254.451 87.2722C 254.451 87.9389 254.222 88.4973 253.728 88.9964L 255.149 90.4036C 256.004 89.5398 256.451 88.4796 256.451 87.2722L 254.451 87.2722ZM 253.728 88.9964C 253.234 89.4953 252.686 89.7222 252.035 89.7222L 252.035 91.7222C 253.239 91.7222 254.294 91.2676 255.149 90.4036L 253.728 88.9964ZM 252.035 89.7222L 228.503 89.7222L 228.503 91.7222L 252.035 91.7222L 252.035 89.7222ZM 226.973 51.8778L 226.973 33.4778L 224.973 33.4778L 224.973 51.8778L 226.973 51.8778ZM 225.162 32.8924L 211.878 51.2924L 213.499 52.4631L 226.783 34.0631L 225.162 32.8924ZM 212.688 52.8778L 225.973 52.8778L 225.973 50.8778L 212.688 50.8778L 212.688 52.8778Z"/>
</defs>
</svg>
