<svg width="15" height="31" viewBox="0 0 15 31" version="1.1" xmlns="http://www.w3.org/2000/svg" xmlns:xlink="http://www.w3.org/1999/xlink">
<title>samovivoz</title>
<desc>Created using Figma</desc>
<g id="Canvas" transform="translate(25245 18300)">
<g id="samovivoz">
<g id="Group">
<g id="Group">
<g id="Vector">
<use xlink:href="#path0_fill" transform="translate(-25244 -18273.8)" fill="#BDBDBD"/>
</g>
<g id="Vector">
<use xlink:href="#path1_fill" transform="translate(-25235.9 -18283)" fill="#BDBDBD"/>
</g>
<g id="Vector">
<use xlink:href="#path2_fill" transform="translate(-25240.8 -18274.3)" fill="#BDBDBD"/>
</g>
<g id="Vector">
<use xlink:href="#path3_fill" transform="translate(-25239.7 -18283)" fill="#BDBDBD"/>
</g>
</g>
</g>
<g id="ico car">
<g id="Vector">
<use xlink:href="#path4_fill" transform="translate(-25245 -18298)" fill="#BDBDBD"/>
</g>
</g>
</g>
</g>
<defs>
<path id="path0_fill" d="M 2.70827 0L 0 0L 0 3.76136L 2.70827 3.76136L 2.70827 0Z"/>
<path id="path1_fill" d="M 1.08331 0L 0 0L 0 2.16793L 1.08331 2.16793L 1.08331 0Z"/>
<path id="path2_fill" d="M 6.00532 0C 5.86828 0 5.73666 0.0357705 5.62508 0.10406L 3.09718 1.65088L 2.70827 1.65088L 2.70827 0.566913L 0 0.566913L 0 4.32827L 3.90316 4.32827L 7.2885 2.10398C 7.49378 1.96902 7.67199 1.68557 7.55499 1.29317C 7.40929 0.805928 6.62497 0 6.00532 0Z"/>
<path id="path3_fill" d="M 5.9582 0L 5.9582 3.25189L 2.70827 3.25189L 2.70827 0L 0 0L 0 7.58775L 8.66647 7.58775L 8.66647 0L 5.9582 0Z"/>
<path id="path4_fill" d="M 5.625 8.75C 5.625 8.99723 5.55169 9.2389 5.41434 9.44446C 5.27699 9.65002 5.08176 9.81024 4.85335 9.90485C 4.62495 9.99946 4.37361 10.0242 4.13114 9.97598C 3.88866 9.92775 3.66593 9.8087 3.49112 9.63388C 3.3163 9.45907 3.19725 9.23634 3.14902 8.99386C 3.10079 8.75139 3.12554 8.50005 3.22015 8.27165C 3.31476 8.04324 3.47498 7.84801 3.68054 7.71066C 3.8861 7.57331 4.12777 7.5 4.375 7.5C 4.70652 7.5 5.02446 7.6317 5.25888 7.86612C 5.4933 8.10054 5.625 8.41848 5.625 8.75ZM 11.875 7.5C 11.6278 7.5 11.3861 7.57331 11.1805 7.71066C 10.975 7.84801 10.8148 8.04324 10.7201 8.27165C 10.6255 8.50005 10.6008 8.75139 10.649 8.99386C 10.6972 9.23634 10.8163 9.45907 10.9911 9.63388C 11.1659 9.8087 11.3887 9.92775 11.6311 9.97598C 11.8736 10.0242 12.1249 9.99946 12.3534 9.90485C 12.5818 9.81024 12.777 9.65002 12.9143 9.44446C 13.0517 9.2389 13.125 8.99723 13.125 8.75C 13.125 8.41848 12.9933 8.10054 12.7589 7.86612C 12.5245 7.6317 12.2065 7.5 11.875 7.5ZM 11.875 3.125L 10 0L 0 0L 0 1.25L 5 1.25L 5 1.875L 0 1.875L 0 3.125L 6.25 3.125L 6.25 3.75L 0 3.75L 0 5L 7.5 5L 7.5 5.625L 0 5.625L 0 8.75L 2.5 8.75C 2.5 8.25272 2.69754 7.77581 3.04917 7.42417C 3.40081 7.07254 3.87772 6.875 4.375 6.875C 4.87228 6.875 5.34919 7.07254 5.70083 7.42417C 6.05246 7.77581 6.25 8.25272 6.25 8.75L 10 8.75C 10 8.25272 10.1975 7.77581 10.5492 7.42417C 10.9008 7.07254 11.3777 6.875 11.875 6.875C 12.3723 6.875 12.8492 7.07254 13.2008 7.42417C 13.5525 7.77581 13.75 8.25272 13.75 8.75L 15 8.75L 15 4.375L 11.875 3.125Z"/>
</defs>
</svg>
